<svg id="svg" version="1.1" xmlns="http://www.w3.org/2000/svg" xmlns:xlink="http://www.w3.org/1999/xlink" width="400" height="400" viewBox="0, 0, 400,400"><g id="svgg"><path id="path0" d="M88.662 88.731 C 87.783 89.702,87.623 235.709,88.500 236.276 C 88.775 236.454,91.425 236.690,94.390 236.800 C 101.355 237.058,100.808 235.951,100.776 249.729 C 100.745 262.698,100.202 261.600,106.649 261.600 C 113.742 261.600,113.200 260.542,113.200 274.371 C 113.200 287.918,112.662 286.800,119.184 286.800 C 125.832 286.800,125.790 286.758,125.832 293.377 C 125.872 299.554,125.504 299.209,132.149 299.314 C 138.786 299.418,138.386 299.002,138.394 305.820 C 138.402 312.335,138.076 312.000,144.404 312.000 C 151.058 312.000,150.725 311.668,150.878 318.468 C 151.025 325.069,150.438 324.474,156.876 324.543 C 163.642 324.615,163.200 324.221,163.200 330.198 C 163.200 332.920,163.376 335.610,163.590 336.174 L 163.980 337.200 206.176 337.200 C 247.484 337.200,248.381 337.184,248.786 336.426 C 249.014 336.001,249.200 333.413,249.200 330.675 C 249.200 324.369,248.912 324.641,255.757 324.466 C 262.001 324.307,261.586 324.731,261.594 318.500 C 261.602 311.905,261.506 312.000,268.151 312.000 C 274.388 312.000,274.087 312.330,274.197 305.384 C 274.300 298.852,273.733 299.418,280.275 299.314 C 287.145 299.204,286.800 299.520,286.800 293.351 C 286.800 286.697,286.697 286.800,293.351 286.800 C 299.805 286.800,299.255 287.942,299.213 274.623 L 299.178 263.586 300.171 262.593 C 301.121 261.643,301.377 261.600,306.102 261.600 C 312.566 261.600,312.000 262.762,312.000 249.494 C 312.000 235.686,311.498 236.802,317.714 236.794 C 320.821 236.790,322.933 236.608,323.514 236.294 L 324.429 235.800 324.418 162.400 C 324.408 93.791,324.363 88.967,323.727 88.500 C 323.208 88.118,318.998 88.000,305.947 88.000 C 292.706 88.000,288.774 88.113,288.524 88.500 C 288.346 88.775,288.110 91.513,288.000 94.585 L 287.800 100.169 286.400 100.484 C 285.630 100.656,280.257 100.771,274.461 100.738 C 262.055 100.668,263.217 100.043,263.200 106.800 C 263.193 109.550,263.017 112.070,262.808 112.400 C 262.475 112.928,255.717 113.013,206.619 113.104 C 140.996 113.227,149.200 114.181,149.200 106.424 C 149.200 102.964,149.048 101.153,148.741 100.964 C 148.489 100.808,143.584 100.707,137.841 100.739 C 132.099 100.771,126.770 100.656,126.000 100.484 L 124.600 100.169 124.362 94.185 C 124.231 90.893,124.096 88.155,124.062 88.100 C 123.678 87.480,89.239 88.094,88.662 88.731 M125.647 113.490 L 127.295 114.979 127.118 119.290 L 126.940 123.600 131.370 123.606 C 134.605 123.610,136.285 123.799,137.600 124.306 C 140.399 125.385,273.506 125.380,275.480 124.300 C 276.481 123.753,277.725 123.600,281.180 123.600 L 285.600 123.600 285.600 119.075 C 285.600 114.599,285.613 114.538,286.765 113.433 L 287.931 112.317 294.465 112.281 L 301.000 112.245 300.930 161.822 C 300.891 189.090,300.711 217.231,300.530 224.357 L 300.200 237.315 299.085 238.147 C 298.079 238.897,297.518 238.967,293.385 238.853 L 288.800 238.726 288.800 243.299 C 288.800 246.204,288.583 248.589,288.204 249.836 C 287.811 251.132,287.605 253.568,287.598 257.000 C 287.584 263.979,287.564 264.000,280.873 264.000 L 276.493 264.000 276.327 269.300 C 276.232 272.359,275.959 274.969,275.681 275.474 C 275.375 276.029,275.198 278.287,275.194 281.674 C 275.186 288.797,275.183 288.800,268.459 288.800 L 264.065 288.800 263.933 293.787 C 263.752 300.574,264.256 300.200,255.286 300.200 L 248.200 300.200 248.089 294.516 L 247.978 288.832 249.206 288.197 C 249.882 287.847,250.636 287.120,250.882 286.581 C 251.318 285.622,251.432 285.600,255.967 285.600 L 260.606 285.600 260.465 281.100 C 260.328 276.690,260.346 276.581,261.362 275.630 C 262.383 274.677,262.400 274.568,262.400 269.114 C 262.400 264.291,262.508 263.356,263.230 261.942 L 264.059 260.316 268.577 260.459 L 273.094 260.602 272.890 256.283 L 272.685 251.964 273.842 250.755 L 275.000 249.547 275.057 237.560 C 275.098 229.111,275.259 225.222,275.606 224.386 L 276.097 223.200 280.849 223.200 L 285.600 223.200 285.600 218.726 C 285.600 214.636,285.677 214.169,286.500 213.294 L 287.400 212.336 287.400 193.800 L 287.400 175.264 286.507 174.314 C 285.634 173.385,285.611 173.112,285.507 162.668 L 285.400 151.973 274.700 151.886 L 264.000 151.800 264.000 157.467 C 264.000 160.584,263.891 163.419,263.757 163.767 C 263.541 164.332,261.511 164.400,244.968 164.400 L 226.421 164.400 226.310 170.500 L 226.200 176.600 220.100 176.710 L 214.000 176.821 214.000 189.219 L 214.000 201.617 206.300 201.509 L 198.600 201.400 198.494 189.110 L 198.388 176.821 192.294 176.710 L 186.200 176.600 186.090 170.500 L 185.979 164.400 167.639 164.400 C 145.951 164.400,148.292 165.229,148.445 157.604 L 148.558 151.972 137.818 151.972 L 127.077 151.972 127.167 162.435 L 127.256 172.897 126.128 174.075 L 125.000 175.253 125.000 193.800 L 125.000 212.347 126.153 213.551 C 127.306 214.754,127.307 214.760,127.119 218.978 L 126.931 223.200 131.592 223.200 L 136.252 223.200 136.926 224.614 C 137.511 225.841,137.600 227.595,137.600 237.944 L 137.600 249.861 138.642 250.830 C 139.665 251.783,139.681 251.878,139.520 256.209 L 139.356 260.617 143.970 260.609 L 148.584 260.600 149.273 262.000 C 149.822 263.116,149.965 264.541,149.981 269.030 C 150.000 274.537,150.022 274.682,151.020 275.619 C 152.004 276.544,152.038 276.734,151.970 280.989 L 151.899 285.400 156.526 285.512 C 160.683 285.614,161.179 285.703,161.398 286.393 C 161.532 286.815,162.267 287.547,163.031 288.019 L 164.421 288.879 164.311 294.539 L 164.200 300.200 158.600 300.321 C 148.515 300.539,148.400 300.459,148.400 293.220 L 148.400 288.800 143.782 288.800 C 137.264 288.800,137.200 288.729,137.200 281.468 C 137.200 277.719,137.019 275.588,136.600 274.400 C 136.208 273.288,136.000 271.194,136.000 268.350 L 136.000 264.000 131.454 264.000 C 124.835 264.000,124.801 263.965,124.796 257.071 C 124.793 253.560,124.592 251.144,124.196 249.836 C 123.817 248.589,123.600 246.204,123.600 243.299 L 123.600 238.726 118.966 238.854 C 114.691 238.972,114.258 238.915,113.366 238.121 L 112.400 237.261 112.400 225.894 C 112.400 216.973,112.272 214.105,111.804 212.564 C 111.291 210.871,111.208 203.833,111.204 161.511 L 111.200 112.422 116.900 112.299 C 120.035 112.232,122.914 112.137,123.299 112.088 C 123.683 112.040,124.740 112.670,125.647 113.490 " stroke="none" fill="#484548" fill-rule="evenodd"></path><path id="path1" d="M0.000 200.000 L 0.000 400.000 200.000 400.000 L 400.000 400.000 400.000 200.000 L 400.000 0.000 200.000 0.000 L 0.000 0.000 0.000 200.000 M124.469 87.462 C 125.110 88.043,125.200 88.805,125.200 93.662 L 125.200 99.200 136.869 99.200 C 151.240 99.200,150.000 98.577,150.000 105.798 C 150.000 111.061,150.002 111.073,151.019 111.536 C 152.115 112.035,258.687 112.243,261.150 111.750 L 262.400 111.500 262.400 105.973 C 262.400 98.578,261.180 99.200,275.689 99.200 L 287.200 99.200 287.200 93.844 C 287.200 85.942,284.961 86.748,306.532 86.886 C 323.752 86.995,324.488 87.031,325.032 87.776 C 326.002 89.103,325.872 235.985,324.900 237.153 C 324.261 237.921,323.731 238.003,318.800 238.097 L 313.400 238.200 313.200 250.081 C 312.961 264.269,313.615 262.960,306.681 263.129 C 303.777 263.200,301.256 263.398,301.079 263.570 C 300.903 263.741,300.723 269.010,300.679 275.279 C 300.582 289.223,301.202 288.000,294.231 288.000 C 287.638 288.000,288.000 287.638,288.000 294.231 C 288.000 300.885,288.303 300.582,281.571 300.657 C 275.128 300.728,275.600 300.278,275.600 306.347 C 275.600 313.256,275.899 312.948,268.933 313.200 L 263.400 313.400 263.200 318.933 C 262.949 325.890,263.245 325.598,256.424 325.606 C 250.168 325.614,250.600 325.174,250.600 331.532 C 250.600 336.349,250.525 336.920,249.824 337.432 C 248.845 338.148,164.103 338.297,162.774 337.586 C 162.066 337.207,162.000 336.700,162.000 331.629 C 162.000 325.066,162.545 325.600,155.844 325.600 C 149.136 325.600,149.410 325.882,149.360 318.932 L 149.320 313.400 143.679 313.200 C 136.637 312.950,137.033 313.330,136.871 306.681 C 136.714 300.260,137.183 300.726,130.805 300.657 C 124.142 300.585,124.400 300.853,124.400 294.004 C 124.400 287.685,124.717 288.000,118.349 288.000 C 111.400 288.000,112.001 289.186,111.994 275.471 C 111.991 269.272,111.854 263.990,111.691 263.733 C 111.495 263.425,109.524 263.220,105.916 263.133 C 98.748 262.959,99.416 264.237,99.321 250.522 C 99.223 236.469,99.972 238.046,93.328 237.911 C 87.906 237.802,87.815 237.785,87.317 236.800 C 86.690 235.558,86.553 89.903,87.177 88.260 C 87.709 86.861,87.207 86.898,106.369 86.846 C 122.010 86.805,123.810 86.866,124.469 87.462 " stroke="none" fill="#fcfcfc" fill-rule="evenodd"></path><path id="path2" d="M88.277 87.080 C 87.880 87.183,87.385 87.714,87.177 88.260 C 86.553 89.903,86.690 235.558,87.317 236.800 C 87.815 237.785,87.906 237.802,93.328 237.911 C 99.972 238.046,99.223 236.469,99.321 250.522 C 99.416 264.237,98.748 262.959,105.916 263.133 C 109.524 263.220,111.495 263.425,111.691 263.733 C 111.854 263.990,111.991 269.272,111.994 275.471 C 112.001 289.186,111.400 288.000,118.349 288.000 C 124.717 288.000,124.400 287.685,124.400 294.004 C 124.400 300.853,124.142 300.585,130.805 300.657 C 137.183 300.726,136.714 300.260,136.871 306.681 C 137.033 313.330,136.637 312.950,143.679 313.200 L 149.320 313.400 149.360 318.932 C 149.410 325.882,149.136 325.600,155.844 325.600 C 162.545 325.600,162.000 325.066,162.000 331.629 C 162.000 336.700,162.066 337.207,162.774 337.586 C 164.103 338.297,248.845 338.148,249.824 337.432 C 250.525 336.920,250.600 336.349,250.600 331.532 C 250.600 325.174,250.168 325.614,256.424 325.606 C 263.245 325.598,262.949 325.890,263.200 318.933 L 263.400 313.400 268.933 313.200 C 275.899 312.948,275.600 313.256,275.600 306.347 C 275.600 300.278,275.128 300.728,281.571 300.657 C 288.303 300.582,288.000 300.885,288.000 294.231 C 288.000 287.638,287.638 288.000,294.231 288.000 C 301.202 288.000,300.582 289.223,300.679 275.279 C 300.723 269.010,300.903 263.741,301.079 263.570 C 301.256 263.398,303.777 263.200,306.681 263.129 C 313.615 262.960,312.961 264.269,313.200 250.081 L 313.400 238.200 318.800 238.097 C 323.731 238.003,324.261 237.921,324.900 237.153 C 325.872 235.985,326.002 89.103,325.032 87.776 C 324.488 87.031,323.752 86.995,306.532 86.886 C 284.961 86.748,287.200 85.942,287.200 93.844 L 287.200 99.200 275.689 99.200 C 261.180 99.200,262.400 98.578,262.400 105.973 L 262.400 111.500 261.150 111.750 C 258.687 112.243,152.115 112.035,151.019 111.536 C 150.002 111.073,150.000 111.061,150.000 105.798 C 150.000 98.577,151.240 99.200,136.869 99.200 L 125.200 99.200 125.200 93.662 C 125.200 88.805,125.110 88.043,124.469 87.462 C 123.762 86.823,90.619 86.473,88.277 87.080 M124.274 88.100 C 124.450 88.375,124.686 91.120,124.797 94.200 L 125.000 99.800 136.912 99.906 L 148.824 100.012 149.212 101.032 C 149.425 101.593,149.603 104.155,149.606 106.726 C 149.609 109.297,149.783 111.670,149.991 112.000 C 150.453 112.731,259.860 113.137,261.759 112.415 L 262.800 112.020 262.800 107.036 C 262.800 104.295,262.976 101.590,263.190 101.026 L 263.580 100.000 275.376 100.000 C 289.302 100.000,288.000 100.654,288.000 93.659 C 288.000 91.023,288.109 88.581,288.243 88.233 C 288.538 87.463,322.607 87.254,324.026 88.014 C 324.787 88.421,324.800 89.676,324.800 162.424 L 324.800 236.420 323.774 236.810 C 323.210 237.024,320.606 237.200,317.988 237.200 C 311.918 237.200,312.400 236.103,312.400 249.925 C 312.400 263.226,312.996 262.036,306.283 262.130 C 299.403 262.227,300.000 261.065,300.000 274.360 C 300.000 288.263,300.515 287.200,293.777 287.200 C 287.090 287.200,287.200 287.090,287.200 293.777 C 287.200 300.137,287.345 300.000,280.591 300.000 C 274.524 300.000,274.800 299.717,274.800 305.949 C 274.800 312.609,275.008 312.400,268.387 312.400 C 261.952 312.400,262.207 312.145,262.179 318.626 C 262.151 325.042,262.384 324.800,256.240 324.800 C 249.427 324.800,249.600 324.633,249.600 331.194 C 249.600 335.341,249.478 336.465,248.971 336.971 C 248.234 337.709,164.761 337.942,163.600 337.209 C 163.124 336.909,162.973 335.667,162.869 331.194 C 162.713 324.435,163.102 324.800,156.054 324.800 C 150.117 324.800,150.400 325.114,150.400 318.534 C 150.400 312.087,150.733 312.400,143.875 312.400 C 137.683 312.400,137.977 312.708,137.878 306.132 C 137.778 299.564,138.198 300.000,131.976 300.000 C 125.075 300.000,125.200 300.119,125.200 293.531 C 125.200 287.030,125.368 287.200,118.967 287.200 C 112.234 287.200,112.800 288.336,112.800 274.833 C 112.800 261.260,113.275 262.244,106.659 262.110 C 104.206 262.060,101.988 262.015,101.729 262.010 C 100.109 261.976,100.000 261.185,100.000 249.420 C 100.000 236.058,100.643 237.309,93.684 237.134 C 89.500 237.028,88.289 236.872,87.991 236.400 C 87.255 235.233,87.489 88.968,88.229 88.229 C 89.071 87.386,123.736 87.262,124.274 88.100 M118.400 113.984 L 113.800 114.200 113.706 158.600 C 113.654 183.020,113.744 210.468,113.906 219.596 L 114.200 236.192 118.669 236.059 C 126.173 235.836,125.848 235.244,126.218 249.851 C 126.368 255.819,126.621 260.910,126.778 261.165 C 126.975 261.483,128.493 261.592,131.632 261.514 L 136.200 261.400 136.200 243.800 L 136.200 226.200 130.627 226.088 C 127.352 226.023,124.836 225.796,124.527 225.539 C 123.919 225.035,123.739 150.631,124.343 149.678 C 124.604 149.267,127.317 149.164,137.236 149.189 C 150.995 149.224,151.348 149.286,151.232 151.650 C 151.206 152.173,151.083 154.510,150.958 156.844 C 150.675 162.128,148.529 161.588,169.824 161.595 C 190.668 161.601,188.532 160.850,188.800 168.267 L 189.000 173.800 194.482 174.000 C 201.655 174.262,200.977 172.932,201.117 187.019 L 201.234 198.800 206.217 198.800 L 211.200 198.800 211.200 187.574 C 211.200 173.079,210.726 174.015,218.076 174.006 C 224.099 173.999,223.711 174.379,223.625 168.576 C 223.560 164.164,223.866 162.637,224.960 161.906 C 225.202 161.744,233.260 161.609,242.867 161.606 C 252.474 161.603,260.619 161.491,260.967 161.357 C 261.502 161.152,261.600 160.260,261.600 155.606 C 261.600 151.528,261.737 149.984,262.129 149.659 C 262.888 149.029,287.620 148.985,288.008 149.613 C 289.019 151.249,288.836 224.740,287.819 225.584 C 287.559 225.800,284.838 226.027,281.773 226.088 L 276.200 226.200 276.200 243.800 L 276.200 261.400 280.869 261.512 C 286.526 261.649,285.879 263.110,286.234 249.400 C 286.600 235.305,286.257 235.935,293.485 236.071 C 296.172 236.121,298.468 236.065,298.588 235.945 C 298.928 235.606,298.843 114.682,298.503 114.351 C 298.336 114.189,296.040 114.011,293.400 113.956 L 288.600 113.856 288.400 119.228 C 288.287 122.262,287.995 124.948,287.728 125.400 C 287.028 126.588,126.104 126.674,124.914 125.487 C 124.321 124.896,124.166 123.849,124.000 119.320 C 123.883 116.133,123.634 113.844,123.400 113.816 C 123.180 113.790,120.930 113.865,118.400 113.984 M138.553 264.179 C 138.430 264.498,138.418 266.883,138.525 269.479 C 138.632 272.076,138.730 276.641,138.744 279.625 C 138.776 286.947,138.351 286.400,144.000 286.400 C 149.817 286.400,149.312 287.631,148.961 274.311 L 148.679 263.600 143.727 263.600 C 139.772 263.600,138.730 263.717,138.553 264.179 M263.600 274.988 L 263.600 286.400 268.392 286.400 C 274.186 286.400,273.553 287.856,273.693 274.200 L 273.800 263.800 268.700 263.688 L 263.600 263.576 263.600 274.988 M151.078 288.655 C 150.501 289.233,150.766 297.874,151.377 298.381 C 152.305 299.151,160.839 299.031,161.281 298.242 C 161.471 297.902,161.575 295.593,161.513 293.112 L 161.400 288.600 156.378 288.489 C 153.616 288.427,151.231 288.502,151.078 288.655 M251.078 288.655 C 250.682 289.051,250.744 297.693,251.148 298.330 C 251.602 299.045,260.180 299.081,261.035 298.371 C 261.505 297.981,261.602 296.940,261.512 293.241 L 261.400 288.600 256.378 288.489 C 253.616 288.427,251.231 288.502,251.078 288.655 " stroke="none" fill="#848484" fill-rule="evenodd"></path><path id="path3" d="M88.400 88.400 C 87.259 89.541,87.121 235.503,88.260 236.451 C 88.723 236.836,90.246 237.015,93.360 237.050 L 97.800 237.100 93.400 236.850 C 90.980 236.712,88.775 236.454,88.500 236.276 C 87.566 235.672,87.791 89.513,88.727 88.666 C 89.374 88.081,91.365 87.997,106.827 87.900 L 124.200 87.791 106.700 87.696 C 89.667 87.603,89.179 87.621,88.400 88.400 M288.492 88.068 C 288.221 88.339,288.011 88.839,288.025 89.180 C 288.041 89.560,288.191 89.452,288.412 88.900 L 288.774 88.000 305.987 88.000 C 322.667 88.000,323.225 88.025,324.000 88.800 C 324.838 89.638,325.056 89.425,324.409 88.400 C 323.894 87.586,289.294 87.266,288.492 88.068 M324.596 162.600 C 324.596 202.640,324.643 218.961,324.700 198.868 C 324.757 178.776,324.757 146.016,324.700 126.068 C 324.643 106.121,324.596 122.560,324.596 162.600 M124.469 99.397 C 124.678 100.582,125.931 100.709,137.000 100.671 L 147.000 100.637 136.267 100.418 C 126.139 100.212,125.500 100.155,124.931 99.400 C 124.330 98.603,124.329 98.603,124.469 99.397 M287.509 99.675 C 287.373 100.084,284.901 100.252,276.367 100.436 L 265.400 100.671 276.281 100.636 C 286.689 100.602,288.897 100.364,287.915 99.382 C 287.788 99.254,287.605 99.386,287.509 99.675 M263.592 100.610 C 263.314 100.945,263.202 101.335,263.343 101.476 C 263.484 101.618,263.600 101.518,263.600 101.254 C 263.600 100.990,264.005 100.611,264.500 100.412 C 265.109 100.168,265.190 100.043,264.749 100.025 C 264.391 100.011,263.870 100.274,263.592 100.610 M149.355 106.600 C 149.356 109.460,149.420 110.578,149.497 109.083 C 149.574 107.589,149.574 105.249,149.496 103.883 C 149.418 102.518,149.355 103.740,149.355 106.600 M262.886 106.886 C 262.809 111.455,262.721 112.014,262.026 112.386 C 260.935 112.970,151.483 112.962,150.274 112.378 C 149.430 111.970,149.426 111.977,150.176 112.578 C 150.971 113.215,259.567 113.573,261.904 112.947 C 263.109 112.624,263.255 111.821,263.102 106.400 L 262.971 101.800 262.886 106.886 M116.900 112.299 L 111.200 112.422 111.204 161.511 C 111.208 203.833,111.291 210.871,111.804 212.564 C 112.272 214.105,112.400 216.973,112.400 225.894 L 112.400 237.261 113.366 238.121 C 114.258 238.915,114.691 238.972,118.966 238.854 L 123.600 238.726 123.600 243.299 C 123.600 246.204,123.817 248.589,124.196 249.836 C 124.592 251.144,124.793 253.560,124.796 257.071 C 124.801 263.965,124.835 264.000,131.454 264.000 L 136.000 264.000 136.000 268.350 C 136.000 271.194,136.208 273.288,136.600 274.400 C 137.019 275.588,137.200 277.719,137.200 281.468 C 137.200 288.729,137.264 288.800,143.782 288.800 L 148.400 288.800 148.400 293.220 C 148.400 300.459,148.515 300.539,158.600 300.321 L 164.200 300.200 164.311 294.539 L 164.421 288.879 163.031 288.019 C 162.267 287.547,161.532 286.815,161.398 286.393 C 161.179 285.703,160.683 285.614,156.526 285.512 L 151.899 285.400 151.970 280.989 C 152.038 276.734,152.004 276.544,151.020 275.619 C 150.022 274.682,150.000 274.537,149.981 269.030 C 149.965 264.541,149.822 263.116,149.273 262.000 L 148.584 260.600 143.970 260.609 L 139.356 260.617 139.520 256.209 C 139.681 251.878,139.665 251.783,138.642 250.830 L 137.600 249.861 137.600 237.944 C 137.600 227.595,137.511 225.841,136.926 224.614 L 136.252 223.200 131.592 223.200 L 126.931 223.200 127.119 218.978 C 127.307 214.760,127.306 214.754,126.153 213.551 L 125.000 212.347 125.000 193.800 L 125.000 175.253 126.128 174.075 L 127.256 172.897 127.167 162.435 L 127.077 151.972 137.818 151.972 L 148.558 151.972 148.445 157.604 C 148.292 165.229,145.951 164.400,167.639 164.400 L 185.979 164.400 186.090 170.500 L 186.200 176.600 192.294 176.710 L 198.388 176.821 198.494 189.110 L 198.600 201.400 206.300 201.509 L 214.000 201.617 214.000 189.219 L 214.000 176.821 220.100 176.710 L 226.200 176.600 226.310 170.500 L 226.421 164.400 244.968 164.400 C 261.511 164.400,263.541 164.332,263.757 163.767 C 263.891 163.419,264.000 160.584,264.000 157.467 L 264.000 151.800 274.700 151.886 L 285.400 151.973 285.507 162.668 C 285.611 173.112,285.634 173.385,286.507 174.314 L 287.400 175.264 287.400 193.800 L 287.400 212.336 286.500 213.294 C 285.677 214.169,285.600 214.636,285.600 218.726 L 285.600 223.200 280.849 223.200 L 276.097 223.200 275.606 224.386 C 275.259 225.222,275.098 229.111,275.057 237.560 L 275.000 249.547 273.842 250.755 L 272.685 251.964 272.890 256.283 L 273.094 260.602 268.577 260.459 L 264.059 260.316 263.230 261.942 C 262.508 263.356,262.400 264.291,262.400 269.114 C 262.400 274.568,262.383 274.677,261.362 275.630 C 260.346 276.581,260.328 276.690,260.465 281.100 L 260.606 285.600 255.967 285.600 C 251.432 285.600,251.318 285.622,250.882 286.581 C 250.636 287.120,249.882 287.847,249.206 288.197 L 247.978 288.832 248.089 294.516 L 248.200 300.200 255.286 300.200 C 264.256 300.200,263.752 300.574,263.933 293.787 L 264.065 288.800 268.459 288.800 C 275.183 288.800,275.186 288.797,275.194 281.674 C 275.198 278.287,275.375 276.029,275.681 275.474 C 275.959 274.969,276.232 272.359,276.327 269.300 L 276.493 264.000 280.873 264.000 C 287.564 264.000,287.584 263.979,287.598 257.000 C 287.605 253.568,287.811 251.132,288.204 249.836 C 288.583 248.589,288.800 246.204,288.800 243.299 L 288.800 238.726 293.385 238.853 C 297.518 238.967,298.079 238.897,299.085 238.147 L 300.200 237.315 300.530 224.357 C 300.711 217.231,300.891 189.090,300.930 161.822 L 301.000 112.245 294.465 112.281 L 287.931 112.317 286.765 113.433 C 285.613 114.538,285.600 114.599,285.600 119.075 L 285.600 123.600 281.180 123.600 C 277.725 123.600,276.481 123.753,275.480 124.300 C 273.506 125.380,140.399 125.385,137.600 124.306 C 136.285 123.799,134.605 123.610,131.370 123.606 L 126.940 123.600 127.118 119.290 L 127.295 114.979 125.647 113.490 C 124.740 112.670,123.683 112.040,123.299 112.088 C 122.914 112.137,120.035 112.232,116.900 112.299 M123.986 113.574 C 124.214 113.999,124.400 116.485,124.400 119.097 C 124.400 125.455,124.026 125.118,131.400 125.407 C 139.334 125.719,273.290 125.713,280.985 125.400 C 288.395 125.099,288.000 125.427,288.000 119.577 C 288.000 114.275,288.406 112.520,289.506 113.059 C 289.888 113.247,292.109 113.418,294.442 113.440 C 296.775 113.463,298.890 113.608,299.142 113.764 C 300.014 114.303,299.775 235.579,298.900 236.243 C 298.409 236.616,296.742 236.778,293.314 236.787 C 286.868 236.804,287.167 235.942,286.643 256.011 C 286.473 262.564,286.622 262.400,280.829 262.400 C 276.897 262.400,276.045 262.293,275.846 261.775 C 275.595 261.121,275.935 227.591,276.207 226.200 C 276.356 225.440,276.633 225.406,281.756 225.521 C 287.027 225.640,287.161 225.622,287.675 224.721 C 288.395 223.457,288.360 151.820,287.638 150.471 C 287.082 149.432,263.894 149.066,262.880 150.080 C 262.555 150.405,262.400 152.278,262.400 155.890 L 262.400 161.220 261.374 161.610 C 260.766 161.841,253.384 162.002,243.274 162.006 C 233.883 162.009,226.002 162.144,225.760 162.306 C 224.720 163.001,224.400 164.550,224.400 168.894 C 224.400 174.619,224.629 174.400,218.646 174.400 C 211.515 174.400,212.000 173.471,212.000 187.138 C 212.000 200.597,212.459 199.600,206.270 199.600 C 199.914 199.600,200.400 200.626,200.400 187.213 C 200.400 173.407,200.906 174.400,193.864 174.400 C 187.727 174.400,188.000 174.670,188.000 168.595 C 188.000 161.311,189.963 162.000,169.203 162.000 C 148.246 162.000,149.905 162.432,150.086 157.025 C 150.161 154.811,150.358 152.718,150.526 152.373 C 150.719 151.974,150.522 151.354,149.986 150.673 L 149.142 149.600 137.185 149.600 C 125.322 149.600,125.224 149.607,124.763 150.469 C 124.043 151.814,124.005 223.459,124.724 224.719 C 125.234 225.612,125.401 225.636,130.700 225.576 C 135.750 225.519,136.172 225.571,136.436 226.286 C 136.840 227.378,137.069 261.294,136.676 261.900 C 136.447 262.254,134.963 262.400,131.600 262.400 C 128.237 262.400,126.753 262.254,126.524 261.900 C 126.208 261.412,125.902 257.039,125.298 244.360 C 124.919 236.413,125.231 236.800,119.200 236.800 C 115.565 236.800,114.388 236.667,114.013 236.216 C 113.380 235.453,113.253 226.441,112.998 163.966 L 112.794 114.131 113.697 113.726 C 114.198 113.502,116.137 113.405,118.051 113.508 C 120.159 113.622,121.793 113.526,122.251 113.260 C 123.296 112.652,123.514 112.692,123.986 113.574 M324.061 236.100 C 323.755 236.406,321.819 236.697,319.081 236.850 L 314.600 237.100 319.087 237.050 C 322.782 237.009,323.697 236.877,324.272 236.300 C 324.657 235.915,324.879 235.600,324.766 235.600 C 324.653 235.600,324.335 235.825,324.061 236.100 M99.307 237.364 C 99.688 237.745,100.038 238.089,100.084 238.129 C 100.130 238.168,100.271 243.150,100.396 249.200 L 100.625 260.200 100.707 249.600 C 100.790 238.745,100.624 237.335,99.207 236.867 C 98.760 236.720,98.784 236.841,99.307 237.364 M312.414 237.574 C 312.157 238.054,312.000 242.575,312.000 249.494 C 312.000 262.762,312.566 261.600,306.102 261.600 C 301.392 261.600,301.118 261.645,300.182 262.582 L 299.200 263.564 299.285 274.282 L 299.369 285.000 299.585 274.067 C 299.844 260.895,299.234 262.000,306.248 262.000 C 312.971 262.000,312.400 263.169,312.400 249.400 C 312.400 239.622,312.487 237.970,313.029 237.429 C 313.374 237.083,313.471 236.800,313.243 236.800 C 313.015 236.800,312.642 237.148,312.414 237.574 M100.400 260.658 C 100.400 261.743,101.526 262.000,106.280 262.000 C 113.336 262.000,112.800 260.953,112.800 274.738 C 112.800 288.285,112.264 287.200,118.958 287.200 C 125.453 287.200,125.200 286.968,125.200 292.925 C 125.200 297.847,125.646 299.600,126.899 299.600 C 127.149 299.600,127.018 299.355,126.609 299.056 C 125.954 298.577,125.861 297.900,125.833 293.421 C 125.790 286.751,125.839 286.800,119.184 286.800 C 112.662 286.800,113.200 287.918,113.200 274.371 C 113.200 260.556,113.729 261.600,106.731 261.600 C 102.763 261.600,101.728 261.478,101.131 260.938 C 100.729 260.574,100.400 260.448,100.400 260.658 M148.736 263.500 C 149.319 264.620,149.759 285.355,149.221 286.360 C 148.678 287.375,139.555 287.676,138.924 286.700 C 138.566 286.147,138.024 276.673,137.888 268.600 L 137.800 263.400 139.400 263.157 C 143.218 262.576,148.354 262.765,148.736 263.500 M274.460 263.500 C 274.819 263.859,274.757 267.977,274.202 280.600 C 273.882 287.878,274.456 287.200,268.616 287.200 C 265.080 287.200,263.554 287.056,263.324 286.700 C 262.838 285.950,263.152 264.438,263.662 263.484 C 264.127 262.616,273.590 262.630,274.460 263.500 M298.893 286.000 C 298.437 286.731,297.960 286.800,293.397 286.800 C 286.687 286.800,286.800 286.687,286.800 293.377 C 286.800 298.067,286.749 298.391,285.911 298.977 C 285.422 299.320,285.229 299.600,285.482 299.600 C 286.865 299.600,287.200 298.397,287.200 293.433 C 287.200 287.036,287.034 287.200,293.503 287.200 C 298.308 287.200,299.600 286.855,299.600 285.571 C 299.600 285.020,299.447 285.113,298.893 286.000 M161.520 288.480 C 162.125 289.085,162.180 297.717,161.586 298.826 C 160.923 300.065,152.263 299.987,150.926 298.730 C 149.835 297.706,149.468 288.681,150.500 288.265 C 151.606 287.818,161.043 288.003,161.520 288.480 M261.767 288.243 C 262.722 288.609,262.697 297.809,261.738 298.869 C 260.536 300.197,251.313 299.949,250.790 298.574 C 250.218 297.070,250.289 289.071,250.880 288.480 C 251.385 287.975,260.550 287.776,261.767 288.243 M132.041 299.558 C 138.216 299.880,138.000 299.646,138.000 306.020 C 138.000 312.636,137.776 312.400,144.055 312.400 C 150.678 312.400,150.400 312.144,150.400 318.240 C 150.400 323.141,150.734 324.806,151.714 324.794 C 152.018 324.790,151.975 324.646,151.600 324.409 C 151.124 324.109,150.975 322.887,150.878 318.515 C 150.725 311.661,151.062 312.000,144.404 312.000 C 138.076 312.000,138.402 312.335,138.394 305.820 C 138.386 299.026,138.734 299.409,132.515 299.358 L 127.400 299.315 132.041 299.558 M275.141 299.468 C 274.361 299.675,273.731 305.625,274.197 308.384 C 274.737 311.581,274.041 312.000,268.191 312.000 C 261.517 312.000,261.600 311.920,261.600 318.367 C 261.600 324.880,262.049 324.384,256.057 324.486 L 251.000 324.573 255.944 324.699 C 262.309 324.862,262.000 325.164,262.000 318.780 C 262.000 312.125,261.724 312.400,268.406 312.400 C 274.992 312.400,274.800 312.606,274.800 305.535 C 274.800 299.467,274.424 299.867,280.400 299.575 L 285.000 299.350 280.400 299.321 C 277.870 299.306,275.503 299.372,275.141 299.468 M155.100 324.695 C 156.255 324.776,158.145 324.776,159.300 324.695 C 160.455 324.614,159.510 324.548,157.200 324.548 C 154.890 324.548,153.945 324.614,155.100 324.695 M162.223 325.367 C 163.061 325.980,163.440 325.913,163.016 325.227 C 162.871 324.992,162.459 324.800,162.100 324.800 C 161.554 324.800,161.574 324.893,162.223 325.367 M249.680 325.280 C 249.358 325.602,249.200 327.393,249.200 330.706 C 249.200 333.427,249.010 336.046,248.778 336.526 C 248.370 337.370,248.377 337.374,248.978 336.624 C 249.468 336.012,249.600 334.761,249.600 330.743 C 249.600 326.305,249.691 325.587,250.300 325.232 C 250.685 325.008,250.811 324.819,250.580 324.812 C 250.349 324.805,249.944 325.016,249.680 325.280 M162.946 331.400 C 162.947 333.600,163.014 334.449,163.095 333.287 C 163.176 332.124,163.176 330.324,163.093 329.287 C 163.011 328.249,162.945 329.200,162.946 331.400 " stroke="none" fill="#747474" fill-rule="evenodd"></path><path id="path4" d="M124.553 94.200 C 124.553 96.840,124.618 97.868,124.697 96.484 C 124.775 95.101,124.774 92.941,124.695 91.684 C 124.616 90.428,124.552 91.560,124.553 94.200 M131.676 100.299 C 134.468 100.367,139.148 100.368,142.076 100.299 C 145.004 100.231,142.720 100.175,137.000 100.174 C 131.280 100.174,128.884 100.230,131.676 100.299 M270.076 100.299 C 272.868 100.367,277.548 100.368,280.476 100.299 C 283.404 100.231,281.120 100.175,275.400 100.174 C 269.680 100.174,267.284 100.230,270.076 100.299 M122.251 113.260 C 121.793 113.526,120.159 113.622,118.051 113.508 C 116.137 113.405,114.198 113.502,113.697 113.726 L 112.794 114.131 112.998 163.966 C 113.253 226.441,113.380 235.453,114.013 236.216 C 114.388 236.667,115.565 236.800,119.200 236.800 C 125.231 236.800,124.919 236.413,125.298 244.360 C 125.950 258.040,126.218 261.581,126.633 261.995 C 126.908 262.269,128.808 262.385,131.833 262.313 L 136.600 262.200 136.848 260.400 C 136.984 259.410,136.984 251.400,136.848 242.600 L 136.600 226.600 136.400 244.000 L 136.200 261.400 131.632 261.514 C 128.493 261.592,126.975 261.483,126.778 261.165 C 126.621 260.910,126.368 255.819,126.218 249.851 C 125.848 235.244,126.173 235.836,118.669 236.059 L 114.200 236.192 113.955 222.996 C 113.590 203.251,113.553 114.476,113.910 114.255 C 114.081 114.150,116.376 114.017,119.010 113.960 L 123.800 113.856 124.000 119.315 C 124.166 123.849,124.321 124.896,124.914 125.487 C 126.103 126.674,286.873 126.588,287.770 125.400 C 288.247 124.768,288.359 123.505,288.301 119.400 L 288.227 114.200 288.101 119.175 C 287.940 125.497,288.376 125.111,281.067 125.401 C 273.229 125.712,139.295 125.718,131.400 125.407 C 124.026 125.118,124.400 125.455,124.400 119.097 C 124.400 113.315,124.004 112.241,122.251 113.260 M288.679 113.054 C 287.994 113.739,288.697 113.877,293.300 113.961 C 295.995 114.010,298.336 114.184,298.503 114.347 C 298.843 114.682,298.928 235.606,298.588 235.945 C 298.468 236.065,296.172 236.121,293.485 236.071 C 286.257 235.935,286.600 235.305,286.234 249.400 C 285.879 263.110,286.526 261.649,280.869 261.512 L 276.200 261.400 275.983 255.600 L 275.766 249.800 275.683 255.467 C 275.573 262.984,275.140 262.400,280.829 262.400 C 286.622 262.400,286.473 262.564,286.643 256.011 C 287.167 235.942,286.868 236.804,293.314 236.787 C 296.742 236.778,298.409 236.616,298.900 236.243 C 299.775 235.579,300.014 114.303,299.142 113.764 C 298.890 113.608,296.775 113.463,294.442 113.440 C 292.109 113.418,289.921 113.259,289.579 113.088 C 289.238 112.916,288.833 112.901,288.679 113.054 M124.528 149.529 C 124.109 149.948,124.018 152.672,124.089 162.729 L 124.178 175.400 124.389 163.000 C 124.505 156.180,124.746 150.375,124.924 150.100 C 125.171 149.718,128.076 149.600,137.195 149.600 L 149.142 149.600 149.986 150.673 C 150.522 151.354,150.719 151.974,150.526 152.373 C 150.358 152.718,150.161 154.811,150.086 157.025 C 149.905 162.432,148.246 162.000,169.203 162.000 C 189.963 162.000,188.000 161.311,188.000 168.595 C 188.000 174.670,187.727 174.400,193.864 174.400 C 200.906 174.400,200.400 173.407,200.400 187.213 C 200.400 200.626,199.914 199.600,206.270 199.600 C 212.459 199.600,212.000 200.597,212.000 187.138 C 212.000 173.471,211.515 174.400,218.646 174.400 C 224.629 174.400,224.400 174.619,224.400 168.894 C 224.400 164.550,224.720 163.001,225.760 162.306 C 226.002 162.144,233.883 162.009,243.274 162.006 C 253.384 162.002,260.766 161.841,261.374 161.610 L 262.400 161.220 262.400 155.890 C 262.400 152.278,262.555 150.405,262.880 150.080 C 263.584 149.376,287.020 149.395,287.476 150.100 C 287.654 150.375,287.895 156.090,288.011 162.800 L 288.223 175.000 288.305 162.600 C 288.351 155.780,288.239 149.965,288.057 149.678 C 287.621 148.991,262.956 148.973,262.129 149.659 C 261.737 149.984,261.600 151.528,261.600 155.606 C 261.600 160.260,261.502 161.152,260.967 161.357 C 260.619 161.491,252.474 161.603,242.867 161.606 C 233.260 161.609,225.202 161.744,224.960 161.906 C 223.866 162.637,223.560 164.164,223.625 168.576 C 223.711 174.379,224.099 173.999,218.076 174.006 C 210.726 174.015,211.200 173.079,211.200 187.574 L 211.200 198.800 206.217 198.800 L 201.234 198.800 201.117 187.019 C 200.977 172.932,201.655 174.262,194.482 174.000 L 189.000 173.800 188.800 168.267 C 188.532 160.850,190.668 161.601,169.824 161.595 C 148.529 161.588,150.675 162.128,150.958 156.844 C 151.083 154.510,151.207 152.184,151.233 151.677 C 151.358 149.286,151.070 149.233,137.476 149.111 C 127.600 149.023,124.948 149.108,124.528 149.529 M288.584 193.800 C 288.584 203.480,288.636 207.383,288.700 202.473 C 288.763 197.563,288.763 189.643,288.700 184.873 C 288.636 180.103,288.584 184.120,288.584 193.800 M124.080 218.651 C 124.020 223.500,124.128 225.208,124.514 225.529 C 125.131 226.041,136.454 226.356,136.286 225.857 C 136.223 225.668,133.719 225.542,130.721 225.576 C 124.125 225.651,124.659 226.255,124.380 218.400 L 124.160 212.200 124.080 218.651 M288.089 218.424 C 287.972 226.089,288.342 225.679,281.692 225.523 C 278.422 225.447,276.349 225.552,276.254 225.800 C 276.004 226.450,287.431 226.086,287.978 225.426 C 288.272 225.072,288.380 222.824,288.299 218.746 L 288.178 212.600 288.089 218.424 M100.176 249.800 C 100.176 255.960,100.232 258.424,100.299 255.276 C 100.367 252.127,100.367 247.087,100.299 244.076 C 100.231 241.064,100.176 243.640,100.176 249.800 M139.400 263.157 L 137.800 263.400 137.888 268.600 C 138.024 276.673,138.566 286.147,138.924 286.700 C 139.153 287.054,140.643 287.200,144.032 287.200 C 150.219 287.200,149.786 288.244,149.272 274.557 L 148.867 263.800 149.057 274.405 C 149.294 287.625,149.811 286.400,144.000 286.400 C 138.347 286.400,138.788 286.983,138.724 279.430 C 138.698 276.334,138.659 271.550,138.638 268.800 L 138.600 263.800 143.716 263.688 C 146.891 263.618,148.741 263.429,148.593 263.188 C 148.336 262.774,142.060 262.752,139.400 263.157 M263.842 263.132 C 263.648 263.446,265.064 263.609,268.684 263.688 L 273.800 263.800 273.693 274.200 C 273.553 287.856,274.186 286.400,268.392 286.400 L 263.600 286.400 263.539 275.100 L 263.477 263.800 263.135 273.200 C 262.946 278.370,262.930 283.590,263.098 284.800 L 263.404 287.000 268.491 287.112 C 274.477 287.243,273.880 287.924,274.202 280.600 C 274.757 267.977,274.819 263.859,274.460 263.500 C 273.883 262.923,264.179 262.587,263.842 263.132 M299.775 274.800 C 299.775 280.850,299.831 283.325,299.899 280.300 C 299.967 277.275,299.967 272.325,299.899 269.300 C 299.831 266.275,299.775 268.750,299.775 274.800 M150.500 288.265 C 149.468 288.681,149.835 297.706,150.926 298.730 C 152.263 299.987,160.923 300.065,161.586 298.826 C 162.180 297.717,162.125 289.085,161.520 288.480 C 161.043 288.003,151.606 287.818,150.500 288.265 M250.880 288.480 C 250.289 289.071,250.218 297.070,250.790 298.574 C 251.313 299.949,260.536 300.197,261.738 298.869 C 262.697 297.809,262.722 288.609,261.767 288.243 C 260.550 287.776,251.385 287.975,250.880 288.480 M161.513 293.112 C 161.664 299.113,161.888 298.859,156.444 298.859 C 150.631 298.859,150.800 299.022,150.800 293.418 C 150.800 287.944,150.335 288.355,156.378 288.489 L 161.400 288.600 161.513 293.112 M261.512 293.241 C 261.652 299.043,261.834 298.859,255.965 298.859 C 250.562 298.859,250.814 299.128,250.806 293.367 C 250.799 287.951,250.338 288.355,256.378 288.489 L 261.400 288.600 261.512 293.241 M129.100 299.896 C 130.475 299.974,132.725 299.974,134.100 299.896 C 135.475 299.818,134.350 299.754,131.600 299.754 C 128.850 299.754,127.725 299.818,129.100 299.896 M278.300 299.896 C 279.675 299.974,281.925 299.974,283.300 299.896 C 284.675 299.818,283.550 299.754,280.800 299.754 C 278.050 299.754,276.925 299.818,278.300 299.896 M185.731 337.500 C 197.132 337.559,215.672 337.559,226.931 337.500 C 238.189 337.441,228.860 337.393,206.200 337.393 C 183.540 337.393,174.329 337.441,185.731 337.500 " stroke="none" fill="#7c7c7c" fill-rule="evenodd"></path></g></svg>