<svg id="svg" version="1.1" xmlns="http://www.w3.org/2000/svg" xmlns:xlink="http://www.w3.org/1999/xlink" width="400" height="400" viewBox="0, 0, 400,400"><g id="svgg"><path id="path0" d="M223.303 123.119 C 220.196 123.267,220.429 122.320,220.301 135.281 C 220.179 147.674,220.819 146.570,213.680 146.699 C 206.882 146.821,207.200 146.509,207.200 153.062 C 207.200 159.324,208.437 158.800,193.650 158.800 C 186.468 158.800,181.553 158.953,181.411 159.181 C 181.282 159.391,181.070 161.956,180.940 164.881 C 180.645 171.562,181.053 171.200,173.804 171.200 C 166.521 171.200,167.200 169.961,167.200 183.253 L 167.200 194.346 160.632 194.473 C 152.763 194.625,153.444 194.052,153.200 200.727 L 153.000 206.189 151.400 206.486 C 150.520 206.650,148.180 206.771,146.200 206.754 C 144.220 206.738,141.745 206.742,140.700 206.762 L 138.800 206.800 138.800 211.200 C 138.800 213.867,138.958 215.600,139.200 215.600 C 139.420 215.600,139.600 216.395,139.600 217.367 C 139.600 220.516,139.346 220.400,146.243 220.400 L 152.400 220.400 152.400 225.600 L 152.400 230.800 106.900 230.823 C 62.918 230.845,47.530 231.110,46.779 231.861 C 46.354 232.286,46.312 247.550,46.715 255.194 L 47.000 260.589 48.600 260.874 C 51.666 261.421,204.094 261.226,205.203 260.674 L 206.200 260.177 206.308 251.849 C 206.391 245.460,206.531 243.565,206.908 243.710 C 207.285 243.856,207.371 242.724,207.276 238.865 C 207.205 235.977,207.010 234.060,206.820 234.368 C 206.568 234.775,206.419 234.690,206.205 234.016 C 206.047 233.518,205.294 232.864,204.493 232.529 C 203.537 232.130,203.228 231.830,203.560 231.624 C 203.849 231.446,203.097 231.204,201.772 231.048 C 200.515 230.901,199.392 230.874,199.277 230.990 C 199.161 231.105,199.502 231.218,200.033 231.240 C 200.734 231.268,200.518 231.430,199.252 231.828 C 197.472 232.387,195.700 232.009,196.212 231.180 C 196.342 230.971,196.122 230.799,195.724 230.797 C 195.326 230.795,194.775 230.309,194.500 229.717 C 193.897 228.418,193.858 227.600,194.400 227.600 C 194.639 227.600,194.800 226.067,194.800 223.800 C 194.800 221.533,194.639 220.000,194.400 220.000 C 194.180 220.000,194.000 219.730,194.000 219.400 C 194.000 218.900,184.349 218.386,181.547 218.737 C 181.408 218.754,181.301 218.551,181.310 218.284 C 181.319 218.018,181.298 215.145,181.263 211.900 L 181.200 206.000 174.608 206.000 L 168.015 206.000 167.744 204.921 C 167.573 204.240,167.644 203.785,167.937 203.688 C 168.572 203.476,168.572 197.324,167.937 197.112 C 166.108 196.503,168.092 194.800,170.631 194.800 C 172.273 194.800,173.155 194.949,173.000 195.200 C 172.838 195.462,175.663 195.600,181.176 195.600 C 186.525 195.600,189.600 195.454,189.600 195.200 C 189.600 194.980,190.485 194.800,191.567 194.800 C 194.912 194.800,194.800 195.002,194.800 188.957 L 194.800 183.600 197.400 183.600 C 198.867 183.600,200.000 183.426,200.000 183.200 C 200.000 182.961,201.533 182.800,203.800 182.800 L 207.600 182.800 207.600 181.776 C 207.600 181.196,207.773 180.860,208.000 181.000 C 208.252 181.156,208.400 180.196,208.400 178.400 C 208.400 176.604,208.252 175.644,208.000 175.800 C 207.780 175.936,207.600 175.677,207.600 175.224 C 207.600 174.771,207.780 174.400,208.000 174.400 C 208.220 174.400,208.400 173.770,208.400 173.000 L 208.400 171.600 214.000 171.600 C 217.080 171.600,219.615 171.735,219.633 171.900 C 219.652 172.065,219.768 172.650,219.891 173.200 C 220.301 175.022,220.221 189.783,219.800 190.130 C 219.541 190.345,219.576 190.532,219.900 190.664 C 220.175 190.775,220.400 191.042,220.400 191.257 C 220.400 191.472,220.192 191.518,219.937 191.361 C 219.608 191.158,219.560 191.354,219.769 192.037 C 219.932 192.567,220.160 193.401,220.277 193.891 C 220.487 194.769,220.607 194.784,227.945 194.891 L 235.400 195.000 235.511 200.900 C 235.615 206.469,235.666 206.800,236.411 206.800 C 236.845 206.800,237.200 206.980,237.200 207.200 C 237.200 207.447,239.252 207.600,242.557 207.600 C 246.965 207.600,247.955 207.707,248.146 208.204 C 248.273 208.536,248.608 208.761,248.889 208.704 C 249.267 208.627,249.365 209.179,249.267 210.829 C 249.098 213.642,249.819 217.663,250.595 218.240 C 250.921 218.481,251.070 218.796,250.927 218.940 C 250.784 219.083,252.992 219.203,255.833 219.206 C 262.412 219.214,261.969 218.806,262.272 225.134 C 262.410 228.036,262.601 230.333,262.695 230.239 C 262.788 230.145,263.460 230.316,264.186 230.620 C 265.280 231.077,272.721 231.175,307.454 231.187 C 347.627 231.202,351.923 231.095,352.558 230.068 C 352.877 229.551,352.946 196.559,352.629 196.046 C 352.464 195.780,352.425 195.313,352.541 195.009 C 352.711 194.567,352.180 194.471,349.877 194.528 C 348.294 194.568,333.524 194.555,317.054 194.500 L 287.109 194.400 287.402 183.047 L 287.696 171.694 286.348 171.258 C 285.607 171.019,282.904 170.856,280.343 170.896 C 274.186 170.992,274.400 171.205,274.400 164.980 C 274.400 158.535,274.683 158.800,267.795 158.800 C 261.423 158.800,261.900 159.287,261.844 152.733 C 261.790 146.459,262.178 146.814,255.376 146.806 C 248.326 146.798,248.652 147.110,248.400 140.133 L 248.200 134.600 242.200 134.494 C 234.822 134.363,235.200 134.696,235.200 128.311 C 235.200 124.874,235.063 123.531,234.700 123.416 C 233.968 123.183,226.205 122.981,223.303 123.119 M297.107 195.086 C 296.506 195.177,295.426 195.179,294.707 195.090 C 293.988 195.001,294.480 194.926,295.800 194.924 C 297.120 194.922,297.708 194.995,297.107 195.086 M352.000 195.600 C 352.000 195.820,351.741 196.000,351.424 196.000 C 351.107 196.000,350.736 195.820,350.600 195.600 C 350.464 195.380,350.723 195.200,351.176 195.200 C 351.629 195.200,352.000 195.380,352.000 195.600 M234.920 201.600 C 234.920 202.810,234.995 203.305,235.087 202.700 C 235.178 202.095,235.178 201.105,235.087 200.500 C 234.995 199.895,234.920 200.390,234.920 201.600 M181.728 210.800 C 181.728 212.230,181.801 212.815,181.889 212.100 C 181.978 211.385,181.978 210.215,181.889 209.500 C 181.801 208.785,181.728 209.370,181.728 210.800 M247.600 211.557 C 247.600 211.974,247.842 212.407,248.138 212.521 C 248.523 212.668,248.623 212.454,248.491 211.763 C 248.273 210.623,247.600 210.468,247.600 211.557 M206.692 240.691 C 206.605 241.521,206.533 240.940,206.531 239.400 C 206.529 237.860,206.600 237.181,206.689 237.891 C 206.777 238.601,206.779 239.861,206.692 240.691 " stroke="none" fill="#ca0808" fill-rule="evenodd"></path><path id="path1" d="M219.064 99.100 C 218.659 99.763,218.770 110.800,219.181 110.800 C 219.454 110.800,219.600 108.713,219.600 104.800 C 219.600 99.179,219.522 98.350,219.064 99.100 M234.800 99.400 C 234.800 99.730,234.980 100.000,235.200 100.000 C 235.420 100.000,235.600 99.730,235.600 99.400 C 235.600 99.070,235.420 98.800,235.200 98.800 C 234.980 98.800,234.800 99.070,234.800 99.400 M249.200 122.400 C 249.200 130.266,249.333 133.965,249.611 133.793 C 250.143 133.464,250.110 111.315,249.577 110.986 C 249.344 110.842,249.200 115.217,249.200 122.400 M192.400 128.000 C 192.400 130.117,192.564 131.600,192.797 131.600 C 193.035 131.600,193.174 130.150,193.144 128.000 C 193.117 126.020,192.938 124.400,192.747 124.400 C 192.556 124.400,192.400 126.020,192.400 128.000 M260.200 133.576 C 259.046 133.842,259.065 133.860,260.704 134.037 C 261.702 134.145,262.354 134.062,262.279 133.836 C 262.104 133.311,261.616 133.250,260.200 133.576 M339.376 133.833 C 338.666 134.412,338.662 134.446,339.333 134.233 C 339.736 134.105,341.221 134.000,342.633 134.000 C 344.078 134.000,345.200 133.825,345.200 133.600 C 345.200 132.919,340.255 133.117,339.376 133.833 M348.200 133.600 C 348.045 133.851,348.929 134.000,350.576 134.000 L 353.200 134.000 353.206 135.700 C 353.211 136.945,353.316 137.239,353.600 136.800 C 354.139 135.966,354.095 134.255,353.520 133.680 C 352.941 133.101,348.549 133.035,348.200 133.600 M353.200 143.376 L 353.200 146.000 359.624 146.000 C 363.804 146.000,365.961 145.860,365.800 145.600 C 365.654 145.363,363.196 145.200,359.776 145.200 L 354.000 145.200 354.000 143.224 C 354.000 142.137,353.820 141.136,353.600 141.000 C 353.349 140.845,353.200 141.729,353.200 143.376 M261.999 145.500 C 262.000 145.879,263.523 146.000,268.280 146.000 C 276.305 146.000,276.001 145.302,267.899 145.127 C 263.377 145.030,261.999 145.117,261.999 145.500 M167.000 145.600 C 166.840 145.859,168.663 146.000,172.176 146.000 C 175.525 146.000,177.600 145.847,177.600 145.600 C 177.600 145.354,175.608 145.200,172.424 145.200 C 169.404 145.200,167.144 145.367,167.000 145.600 M325.862 145.931 C 325.152 146.716,324.933 148.612,325.600 148.200 C 325.820 148.064,326.000 147.513,326.000 146.976 L 326.000 146.000 332.400 146.000 C 336.400 146.000,338.800 145.850,338.800 145.600 C 338.800 144.784,326.618 145.097,325.862 145.931 M274.800 151.976 C 274.800 155.725,274.951 158.000,275.200 158.000 C 275.448 158.000,275.600 155.808,275.600 152.224 C 275.600 148.804,275.437 146.346,275.200 146.200 C 274.940 146.039,274.800 148.063,274.800 151.976 M166.267 146.667 C 165.852 147.082,165.953 148.400,166.400 148.400 C 166.620 148.400,166.800 147.950,166.800 147.400 C 166.800 146.353,166.708 146.226,166.267 146.667 M340.400 153.120 C 340.400 159.497,340.365 159.570,337.220 159.672 L 335.000 159.744 336.900 159.894 L 338.800 160.044 338.800 165.022 L 338.800 170.000 333.178 170.000 L 327.556 170.000 327.678 164.799 C 327.769 160.899,327.678 159.599,327.311 159.599 C 326.952 159.600,326.792 161.176,326.711 165.500 L 326.600 171.400 307.151 171.504 L 287.701 171.608 287.406 182.826 C 287.244 188.996,287.181 194.114,287.265 194.199 C 287.386 194.320,346.572 194.527,351.900 194.425 L 353.200 194.400 353.200 177.460 C 353.200 166.191,353.053 160.098,352.761 159.260 L 352.322 158.000 346.761 158.000 L 341.200 158.000 341.200 152.800 C 341.200 149.600,341.046 147.600,340.800 147.600 C 340.553 147.600,340.400 149.707,340.400 153.120 M325.200 154.600 C 325.200 154.930,325.380 155.200,325.600 155.200 C 325.820 155.200,326.000 154.930,326.000 154.600 C 326.000 154.270,325.820 154.000,325.600 154.000 C 325.380 154.000,325.200 154.270,325.200 154.600 M325.508 156.707 L 325.276 157.594 300.538 157.700 L 275.800 157.806 300.451 157.903 C 326.351 158.005,326.466 157.998,325.908 156.324 C 325.816 156.047,325.636 156.220,325.508 156.707 M152.944 157.691 C 152.839 157.861,155.868 157.973,159.676 157.940 C 167.586 157.872,167.245 157.689,158.868 157.506 C 155.715 157.438,153.049 157.521,152.944 157.691 M152.001 169.100 C 152.001 169.265,149.337 169.346,146.080 169.281 C 140.322 169.165,140.138 169.187,139.390 170.081 C 138.967 170.586,138.877 170.775,139.191 170.500 C 139.595 170.145,141.594 170.000,146.080 170.000 C 151.431 170.000,152.400 169.908,152.400 169.400 C 152.400 169.070,152.310 168.800,152.200 168.800 C 152.090 168.800,152.000 168.935,152.001 169.100 M209.305 171.887 C 209.914 171.979,210.814 171.977,211.305 171.882 C 211.797 171.787,211.300 171.711,210.200 171.714 C 209.100 171.717,208.697 171.795,209.305 171.887 M322.500 172.250 L 325.200 172.503 325.200 177.044 L 325.200 181.584 306.800 181.692 L 288.400 181.800 288.400 177.110 L 288.400 172.421 294.500 172.310 C 309.539 172.038,320.010 172.015,322.500 172.250 M219.646 181.700 C 219.640 186.265,219.763 190.000,219.918 190.000 C 220.348 189.999,220.452 174.823,220.028 174.064 C 219.789 173.638,219.652 176.370,219.646 181.700 M207.600 175.224 C 207.600 175.677,207.780 175.936,208.000 175.800 C 208.220 175.664,208.400 175.293,208.400 174.976 C 208.400 174.659,208.220 174.400,208.000 174.400 C 207.780 174.400,207.600 174.771,207.600 175.224 M207.600 181.720 L 207.600 182.800 203.800 182.800 C 201.448 182.800,200.000 182.958,200.000 183.214 C 200.000 184.230,208.188 183.483,208.334 182.454 C 208.407 181.933,208.272 181.312,208.034 181.074 C 207.722 180.762,207.600 180.944,207.600 181.720 M111.000 181.600 C 110.837 181.864,115.529 182.000,124.776 182.000 C 133.859 182.000,138.800 181.859,138.800 181.600 C 138.800 181.341,133.941 181.200,125.024 181.200 C 116.271 181.200,111.157 181.346,111.000 181.600 M110.098 188.076 L 110.200 193.352 90.870 193.241 C 72.963 193.139,71.483 193.182,70.770 193.827 C 69.968 194.553,69.703 196.400,70.400 196.400 C 70.620 196.400,70.800 195.860,70.800 195.200 L 70.800 194.000 90.800 194.000 L 110.800 194.000 110.800 188.400 C 110.800 184.911,110.648 182.800,110.398 182.800 C 110.143 182.800,110.033 184.736,110.098 188.076 M219.619 193.200 C 219.634 195.478,220.046 195.600,227.744 195.600 C 234.176 195.600,234.805 195.662,234.855 196.300 C 234.885 196.685,234.945 199.025,234.988 201.499 C 235.031 203.974,235.191 206.124,235.344 206.278 C 235.498 206.431,235.573 203.956,235.511 200.778 L 235.400 195.000 227.900 194.891 C 221.105 194.793,220.399 194.717,220.394 194.091 C 220.391 193.711,220.213 193.130,220.000 192.800 C 219.693 192.326,219.614 192.409,219.619 193.200 M191.900 194.696 C 190.635 194.775,189.600 195.020,189.600 195.239 C 189.600 195.837,194.500 195.511,194.702 194.900 C 194.792 194.625,194.717 194.434,194.533 194.476 C 194.350 194.517,193.165 194.616,191.900 194.696 M167.843 195.433 C 167.478 196.384,167.550 197.200,168.000 197.200 C 168.220 197.200,168.400 196.840,168.400 196.400 C 168.400 195.698,168.667 195.600,170.576 195.600 C 171.773 195.600,172.864 195.420,173.000 195.200 C 173.155 194.949,172.285 194.800,170.666 194.800 C 168.682 194.800,168.029 194.946,167.843 195.433 M111.600 197.062 C 111.600 197.992,111.780 198.864,112.000 199.000 C 112.244 199.151,112.400 198.549,112.400 197.457 C 112.400 196.394,112.603 195.588,112.900 195.474 C 113.175 195.368,112.995 195.301,112.500 195.326 C 111.716 195.365,111.600 195.587,111.600 197.062 M114.700 195.482 C 115.195 195.578,116.005 195.578,116.500 195.482 C 116.995 195.387,116.590 195.309,115.600 195.309 C 114.610 195.309,114.205 195.387,114.700 195.482 M138.243 196.233 C 137.908 197.104,138.025 203.928,138.400 205.400 C 138.589 206.142,138.723 204.503,138.753 201.100 C 138.799 195.688,138.725 194.977,138.243 196.233 M70.174 198.632 C 70.023 199.639,70.081 201.214,70.302 202.132 C 70.673 203.674,70.708 203.535,70.752 200.300 C 70.805 196.436,70.595 195.829,70.174 198.632 M167.600 204.167 C 167.600 205.966,167.754 206.004,174.543 205.913 L 181.000 205.825 175.600 205.715 C 169.146 205.584,168.400 205.447,168.400 204.392 C 168.400 203.957,168.220 203.600,168.000 203.600 C 167.780 203.600,167.600 203.855,167.600 204.167 M70.000 205.000 C 70.000 205.550,70.180 206.000,70.400 206.000 C 70.620 206.000,70.800 205.550,70.800 205.000 C 70.800 204.450,70.620 204.000,70.400 204.000 C 70.180 204.000,70.000 204.450,70.000 205.000 M111.600 206.624 C 111.600 207.471,111.762 207.947,112.000 207.800 C 112.220 207.664,112.400 207.023,112.400 206.376 C 112.400 205.729,112.220 205.200,112.000 205.200 C 111.780 205.200,111.600 205.841,111.600 206.624 M58.024 211.579 C 57.991 215.272,58.118 217.200,58.395 217.200 C 58.646 217.200,58.779 216.357,58.727 215.100 C 58.678 213.945,58.702 211.479,58.780 209.620 C 58.871 207.469,58.768 206.189,58.498 206.099 C 58.213 206.004,58.057 207.811,58.024 211.579 M181.229 212.301 C 181.271 215.865,181.454 218.690,181.635 218.578 C 182.029 218.335,181.840 206.506,181.435 206.101 C 181.280 205.946,181.187 208.736,181.229 212.301 M235.800 207.200 C 235.936 207.420,236.307 207.600,236.624 207.600 C 236.941 207.600,237.200 207.420,237.200 207.200 C 237.200 206.980,236.829 206.800,236.376 206.800 C 235.923 206.800,235.664 206.980,235.800 207.200 M71.600 208.600 C 71.600 209.150,71.780 209.600,72.000 209.600 C 72.220 209.600,72.400 209.358,72.400 209.063 C 72.400 208.284,84.337 207.926,99.208 208.260 C 108.197 208.461,111.200 208.412,111.200 208.064 C 111.200 207.718,106.160 207.600,91.400 207.600 L 71.600 207.600 71.600 208.600 M247.600 209.600 C 247.600 210.260,247.780 210.800,248.000 210.800 C 248.220 210.800,248.400 210.260,248.400 209.600 C 248.400 208.940,248.220 208.400,248.000 208.400 C 247.780 208.400,247.600 208.940,247.600 209.600 M247.600 214.400 C 247.600 215.500,247.780 216.400,248.000 216.400 C 248.220 216.400,248.400 215.500,248.400 214.400 C 248.400 213.300,248.220 212.400,248.000 212.400 C 247.780 212.400,247.600 213.300,247.600 214.400 M138.800 217.551 C 138.800 218.898,139.009 219.672,139.475 220.051 C 140.069 220.534,140.117 220.512,139.875 219.867 C 139.724 219.464,139.600 218.339,139.600 217.367 C 139.600 216.395,139.420 215.600,139.200 215.600 C 138.980 215.600,138.800 216.478,138.800 217.551 M247.900 217.028 C 247.735 217.196,247.600 217.663,247.600 218.067 C 247.600 218.744,247.156 218.800,241.744 218.800 C 234.427 218.800,234.830 218.410,234.813 225.500 L 234.800 230.800 220.990 230.800 L 207.180 230.800 207.290 237.300 L 207.400 243.800 234.377 243.903 C 249.215 243.959,261.498 243.862,261.673 243.687 C 262.332 243.028,262.262 220.012,261.600 219.592 C 261.270 219.383,258.176 219.209,254.725 219.206 L 248.451 219.200 248.325 217.962 C 248.256 217.281,248.065 216.861,247.900 217.028 M71.600 218.624 C 71.600 219.471,71.762 219.947,72.000 219.800 C 72.220 219.664,72.400 219.023,72.400 218.376 C 72.400 217.729,72.220 217.200,72.000 217.200 C 71.780 217.200,71.600 217.841,71.600 218.624 M194.000 219.400 C 194.000 219.730,194.180 220.000,194.400 220.000 C 194.620 220.000,194.800 219.730,194.800 219.400 C 194.800 219.070,194.620 218.800,194.400 218.800 C 194.180 218.800,194.000 219.070,194.000 219.400 M59.600 225.600 C 59.600 228.800,59.754 230.800,60.000 230.800 C 60.246 230.800,60.400 228.800,60.400 225.600 C 60.400 222.400,60.246 220.400,60.000 220.400 C 59.754 220.400,59.600 222.400,59.600 225.600 M151.600 225.600 C 151.600 228.800,151.754 230.800,152.000 230.800 C 152.246 230.800,152.400 228.800,152.400 225.600 C 152.400 222.400,152.246 220.400,152.000 220.400 C 151.754 220.400,151.600 222.400,151.600 225.600 M194.000 228.376 C 194.000 228.803,194.180 229.264,194.400 229.400 C 194.627 229.540,194.800 229.204,194.800 228.624 C 194.800 228.061,194.620 227.600,194.400 227.600 C 194.180 227.600,194.000 227.949,194.000 228.376 M32.400 239.000 C 32.400 241.530,32.535 243.600,32.700 243.600 C 32.865 243.599,33.027 241.529,33.060 239.000 C 33.094 236.470,32.959 234.400,32.760 234.400 C 32.562 234.400,32.400 236.470,32.400 239.000 M32.957 279.600 C 32.957 282.570,33.020 283.785,33.097 282.300 C 33.174 280.815,33.174 278.385,33.097 276.900 C 33.020 275.415,32.957 276.630,32.957 279.600 M46.400 281.000 L 46.400 287.600 122.300 287.600 C 164.045 287.600,233.165 287.480,275.900 287.334 L 353.600 287.067 353.600 280.734 L 353.600 274.400 200.000 274.400 L 46.400 274.400 46.400 281.000 M44.436 294.612 C 44.479 297.588,44.669 300.119,44.857 300.235 C 45.046 300.352,45.200 297.917,45.200 294.824 C 45.200 291.154,45.054 289.200,44.779 289.200 C 44.501 289.200,44.384 291.040,44.436 294.612 " stroke="none" fill="#d8d3d1" fill-rule="evenodd"></path><path id="path2" d="M219.599 99.300 C 219.598 99.671,220.476 99.767,222.999 99.671 C 227.420 99.502,227.421 98.800,223.000 98.800 C 220.547 98.800,219.600 98.939,219.599 99.300 M228.000 99.184 C 228.000 99.395,229.485 99.620,231.300 99.684 L 234.600 99.800 234.800 105.600 L 235.000 111.400 242.101 111.600 C 247.621 111.755,249.201 111.689,249.201 111.300 C 249.200 110.920,247.573 110.800,242.400 110.800 L 235.600 110.800 235.564 107.300 C 235.545 105.375,235.558 102.945,235.594 101.900 C 235.633 100.772,235.485 100.000,235.230 100.000 C 234.993 100.000,234.800 99.730,234.800 99.400 C 234.800 98.914,234.156 98.800,231.400 98.800 C 229.496 98.800,228.000 98.969,228.000 99.184 M206.800 111.400 C 206.800 111.730,206.620 112.000,206.400 112.000 C 206.155 112.000,206.000 113.925,206.000 116.976 C 206.000 119.863,206.168 122.057,206.400 122.200 C 206.658 122.360,206.800 120.748,206.800 117.656 C 206.800 111.035,206.180 111.600,213.443 111.600 C 217.281 111.600,219.600 111.449,219.600 111.200 C 219.600 110.950,217.200 110.800,213.200 110.800 C 207.778 110.800,206.800 110.892,206.800 111.400 M192.643 123.033 C 192.303 123.919,192.340 124.400,192.750 124.400 C 192.942 124.400,193.100 123.950,193.100 123.400 C 193.100 122.242,192.983 122.147,192.643 123.033 M180.100 133.798 C 179.753 134.193,179.600 136.019,179.600 139.783 L 179.600 145.200 178.600 145.200 C 178.050 145.200,177.600 145.391,177.600 145.625 C 177.600 145.864,178.170 145.996,178.900 145.925 L 180.200 145.800 180.311 139.900 L 180.421 134.000 186.811 134.000 C 190.804 134.000,193.200 133.850,193.200 133.600 C 193.200 132.919,180.708 133.108,180.100 133.798 M249.824 133.562 C 249.533 134.032,258.154 134.091,260.000 133.631 C 261.011 133.379,259.825 133.271,255.724 133.241 C 252.602 133.218,249.947 133.363,249.824 133.562 M345.200 133.600 C 345.200 133.820,345.819 134.000,346.576 134.000 C 347.333 134.000,348.064 133.820,348.200 133.600 C 348.349 133.358,347.804 133.200,346.824 133.200 C 345.931 133.200,345.200 133.380,345.200 133.600 M261.817 136.167 C 261.867 142.268,262.038 144.800,262.400 144.800 C 262.647 144.800,262.800 142.756,262.800 139.467 C 262.800 135.467,262.675 134.133,262.300 134.133 C 261.963 134.133,261.805 134.798,261.817 136.167 M339.288 134.337 C 338.726 134.694,338.705 145.894,339.266 146.241 C 339.428 146.341,339.615 143.627,339.680 140.211 C 339.746 136.794,339.800 134.002,339.800 134.006 C 339.800 134.009,339.570 134.159,339.288 134.337 M352.961 135.666 C 352.983 136.618,353.215 137.409,353.500 137.502 C 353.779 137.594,353.997 137.343,353.994 136.933 C 353.989 136.333,353.921 136.305,353.621 136.780 C 353.356 137.199,353.208 136.893,353.088 135.677 L 352.922 133.994 352.961 135.666 M352.996 140.500 C 352.898 140.775,352.769 142.260,352.709 143.800 L 352.600 146.600 346.500 146.710 C 338.431 146.856,338.330 147.600,346.379 147.600 L 352.359 147.600 352.590 153.500 C 353.155 167.947,353.232 194.078,352.712 194.744 C 352.246 195.341,352.269 195.346,352.962 194.800 C 353.700 194.218,353.716 193.472,353.495 170.547 C 353.329 153.376,353.388 146.772,353.713 146.447 C 354.042 146.118,354.034 146.000,353.680 146.000 C 353.355 146.000,353.200 145.150,353.200 143.376 C 353.200 141.729,353.349 140.845,353.600 141.000 C 353.820 141.136,354.000 140.967,354.000 140.624 C 354.000 139.880,353.251 139.788,352.996 140.500 M366.000 223.176 C 366.000 274.392,366.135 300.400,366.400 300.400 C 366.954 300.400,366.954 146.543,366.400 146.200 C 366.134 146.036,366.000 171.796,366.000 223.176 M325.456 148.278 C 325.003 148.731,325.184 150.726,325.700 150.967 C 326.100 151.153,326.100 151.247,325.700 151.433 C 325.108 151.709,325.019 154.000,325.600 154.000 C 325.820 154.000,326.000 154.270,326.000 154.600 C 326.000 154.930,325.814 155.200,325.587 155.200 C 325.091 155.200,325.216 157.962,325.726 158.278 C 325.931 158.404,325.970 157.918,325.819 157.150 C 325.621 156.152,325.661 155.957,325.970 156.400 C 326.272 156.834,326.389 155.816,326.394 152.724 C 326.399 148.814,326.142 147.592,325.456 148.278 M166.000 152.789 L 166.000 157.178 160.300 157.290 L 154.600 157.403 160.701 157.601 L 166.801 157.800 166.801 153.100 C 166.800 150.234,166.644 148.400,166.400 148.400 C 166.158 148.400,166.000 150.130,166.000 152.789 M152.400 161.400 C 152.400 163.400,152.565 164.800,152.800 164.800 C 153.023 164.800,153.202 163.696,153.205 162.300 C 153.208 160.925,153.319 159.395,153.452 158.900 C 153.629 158.238,153.522 158.000,153.047 158.000 C 152.502 158.000,152.400 158.535,152.400 161.400 M339.600 158.600 C 339.317 158.941,339.176 159.309,339.286 159.419 C 339.396 159.529,339.717 159.341,340.000 159.000 C 340.283 158.659,340.424 158.291,340.314 158.181 C 340.204 158.071,339.883 158.259,339.600 158.600 M329.600 159.200 C 329.600 159.420,330.140 159.600,330.800 159.600 C 331.460 159.600,332.000 159.420,332.000 159.200 C 332.000 158.980,331.460 158.800,330.800 158.800 C 330.140 158.800,329.600 158.980,329.600 159.200 M326.138 170.613 C 325.879 171.165,325.841 171.600,326.050 171.600 C 326.495 171.600,326.934 170.595,326.738 170.026 C 326.662 169.806,326.392 170.070,326.138 170.613 M138.849 172.067 C 138.763 173.941,139.263 174.656,139.757 173.367 C 140.208 172.192,140.024 170.133,139.468 170.133 C 139.112 170.133,138.908 170.770,138.849 172.067 M302.100 172.294 C 303.145 172.376,304.855 172.376,305.900 172.294 C 306.945 172.212,306.090 172.144,304.000 172.144 C 301.910 172.144,301.055 172.212,302.100 172.294 M312.300 172.298 C 314.115 172.372,317.085 172.372,318.900 172.298 C 320.715 172.223,319.230 172.163,315.600 172.163 C 311.970 172.163,310.485 172.223,312.300 172.298 M138.800 180.049 C 138.800 181.825,138.880 182.032,139.400 181.600 C 140.020 181.086,140.182 179.739,139.757 178.633 C 139.268 177.359,138.800 178.052,138.800 180.049 M110.109 191.600 C 110.109 192.590,110.187 192.995,110.282 192.500 C 110.378 192.005,110.378 191.195,110.282 190.700 C 110.187 190.205,110.109 190.610,110.109 191.600 M111.200 196.724 C 111.200 198.323,112.347 201.222,112.387 199.724 C 112.394 199.462,112.220 199.136,112.000 199.000 C 111.780 198.864,111.600 197.996,111.600 197.072 L 111.600 195.391 125.200 195.499 C 134.156 195.571,138.800 195.470,138.800 195.204 C 138.800 194.940,134.020 194.800,125.000 194.800 L 111.200 194.800 111.200 196.724 M70.000 197.400 C 70.000 197.950,70.069 198.400,70.153 198.400 C 70.238 198.400,70.393 197.950,70.498 197.400 C 70.603 196.850,70.534 196.400,70.345 196.400 C 70.155 196.400,70.000 196.850,70.000 197.400 M70.000 203.000 C 70.000 203.550,70.155 204.000,70.345 204.000 C 70.534 204.000,70.603 203.550,70.498 203.000 C 70.393 202.450,70.238 202.000,70.153 202.000 C 70.069 202.000,70.000 202.450,70.000 203.000 M111.374 205.359 C 111.242 205.887,111.214 206.742,111.312 207.259 C 111.432 207.891,111.509 207.707,111.546 206.700 C 111.575 205.875,111.780 205.200,112.000 205.200 C 112.220 205.200,112.400 205.020,112.400 204.800 C 112.400 203.996,111.608 204.428,111.374 205.359 M58.903 207.300 C 58.844 208.453,58.878 208.498,59.205 207.700 C 59.563 206.827,59.742 206.800,65.187 206.800 C 68.662 206.800,70.800 206.648,70.800 206.400 C 70.800 206.151,68.562 206.000,64.885 206.000 L 58.970 206.000 58.903 207.300 M71.600 210.200 C 71.600 210.530,71.780 210.800,72.000 210.800 C 72.220 210.800,72.400 210.530,72.400 210.200 C 72.400 209.870,72.220 209.600,72.000 209.600 C 71.780 209.600,71.600 209.870,71.600 210.200 M58.619 213.300 C 58.452 213.685,58.452 214.315,58.619 214.700 C 59.003 215.581,59.374 214.481,59.091 213.300 C 58.932 212.633,58.909 212.633,58.619 213.300 M58.000 217.976 C 58.000 218.403,58.180 218.864,58.400 219.000 C 58.627 219.140,58.800 218.804,58.800 218.224 C 58.800 217.661,58.620 217.200,58.400 217.200 C 58.180 217.200,58.000 217.549,58.000 217.976 M71.260 218.700 C 71.201 219.589,71.129 219.600,65.443 219.600 C 61.206 219.600,59.635 219.732,59.493 220.100 C 59.239 220.760,71.593 220.586,72.200 219.921 C 72.474 219.621,72.451 219.566,72.127 219.748 C 71.826 219.917,71.594 219.612,71.487 218.907 C 71.353 218.022,71.308 217.980,71.260 218.700 M45.200 224.800 C 45.200 228.533,45.351 230.800,45.600 230.800 C 45.849 230.800,46.000 228.533,46.000 224.800 C 46.000 221.067,45.849 218.800,45.600 218.800 C 45.351 218.800,45.200 221.067,45.200 224.800 M203.400 231.200 C 204.511 231.678,205.295 231.678,205.000 231.200 C 204.864 230.980,204.268 230.813,203.676 230.828 C 202.715 230.853,202.686 230.893,203.400 231.200 M205.800 231.200 C 205.664 231.420,205.822 231.600,206.151 231.600 C 206.526 231.600,206.809 232.085,206.911 232.900 C 207.050 234.027,207.080 233.974,207.136 232.500 C 207.198 230.847,206.461 230.130,205.800 231.200 M261.978 237.600 L 261.800 243.800 234.600 244.004 C 219.640 244.117,210.404 244.252,214.076 244.304 C 221.948 244.417,221.279 243.841,221.311 250.531 C 221.324 253.429,221.404 254.540,221.488 253.000 C 221.572 251.460,221.799 250.042,221.992 249.849 C 222.193 249.647,222.154 249.195,221.900 248.788 C 221.434 248.042,222.499 245.767,223.131 246.157 C 223.543 246.412,223.198 249.600,222.758 249.600 C 221.861 249.600,222.361 255.539,223.269 255.672 C 224.967 255.922,224.561 256.798,222.733 256.828 C 221.376 256.850,221.174 256.933,221.800 257.211 C 222.240 257.406,225.930 257.563,230.000 257.559 C 240.674 257.550,240.000 257.500,240.000 258.304 C 240.000 258.691,240.360 259.232,240.800 259.507 C 241.872 260.177,241.812 260.800,240.676 260.800 C 239.479 260.800,238.102 259.832,238.739 259.437 C 240.104 258.594,238.611 258.402,230.900 258.428 C 221.883 258.459,220.682 258.625,221.751 259.694 C 222.108 260.051,222.400 260.531,222.400 260.760 C 222.400 261.511,332.366 261.355,332.654 260.603 C 332.953 259.824,333.600 259.822,333.600 260.600 C 333.600 260.933,333.956 261.200,334.400 261.200 C 334.844 261.200,335.200 260.933,335.200 260.600 C 335.200 259.740,336.269 259.858,336.501 260.743 C 336.735 261.638,338.570 262.068,339.937 261.548 C 340.474 261.344,342.058 261.143,343.457 261.101 C 345.220 261.049,346.000 260.869,346.000 260.513 C 346.000 260.182,346.561 260.000,347.576 260.000 C 349.751 260.000,350.006 260.713,347.909 260.930 C 346.969 261.027,347.671 261.082,349.468 261.052 C 352.950 260.993,353.598 260.761,352.838 259.845 C 352.557 259.507,352.515 259.176,352.735 259.040 C 352.941 258.913,353.137 255.751,353.170 252.014 L 353.230 245.219 330.715 245.043 C 318.332 244.945,307.004 244.747,305.542 244.601 C 303.432 244.390,302.611 244.477,301.554 245.024 C 300.346 245.648,298.733 245.699,284.012 245.570 C 275.095 245.493,266.540 245.465,265.000 245.509 L 262.200 245.589 262.328 240.495 C 262.398 237.693,262.388 234.500,262.305 233.400 C 262.223 232.300,262.075 234.190,261.978 237.600 M32.909 240.800 C 32.909 241.790,32.987 242.195,33.082 241.700 C 33.178 241.205,33.178 240.395,33.082 239.900 C 32.987 239.405,32.909 239.810,32.909 240.800 M242.300 245.494 C 241.255 245.576,239.545 245.576,238.500 245.494 C 237.455 245.412,238.310 245.344,240.400 245.344 C 242.490 245.344,243.345 245.412,242.300 245.494 M310.179 245.966 C 310.303 246.167,310.179 246.408,309.902 246.501 C 309.509 246.633,309.519 246.814,309.949 247.335 C 310.556 248.070,313.389 248.265,313.800 247.600 C 314.111 247.097,332.800 247.051,332.800 247.553 C 332.800 248.225,330.964 248.389,322.400 248.483 L 313.800 248.578 323.200 248.789 L 332.600 249.000 332.722 250.900 L 332.844 252.800 300.822 252.800 L 268.800 252.800 268.800 251.200 C 268.800 249.867,268.667 249.600,268.000 249.600 C 267.560 249.600,267.200 249.420,267.200 249.200 C 267.200 248.980,267.524 248.800,267.920 248.800 C 268.316 248.800,268.814 248.626,269.027 248.413 C 269.629 247.811,300.441 247.819,300.813 248.421 C 301.023 248.761,301.216 248.700,301.493 248.206 C 301.850 247.567,301.968 247.563,303.114 248.155 C 304.546 248.896,305.600 248.642,305.600 247.557 C 305.600 247.141,305.744 246.800,305.920 246.800 C 306.517 246.800,307.138 247.695,306.926 248.249 C 306.678 248.894,308.209 249.032,308.600 248.400 C 308.736 248.180,308.657 248.000,308.424 248.000 C 307.692 248.000,307.943 246.074,308.700 245.876 C 309.842 245.577,309.943 245.583,310.179 245.966 M345.200 245.984 C 345.200 246.369,312.042 246.176,311.655 245.789 C 311.552 245.685,319.057 245.600,328.333 245.600 C 338.848 245.600,345.200 245.745,345.200 245.984 M352.055 246.100 C 352.489 246.457,352.581 246.943,352.379 247.800 L 352.095 249.000 352.047 247.700 L 352.000 246.400 349.800 246.400 C 348.590 246.400,347.600 246.220,347.600 246.000 C 347.600 245.423,351.334 245.507,352.055 246.100 M256.400 247.204 C 256.400 247.620,256.715 248.144,257.100 248.368 C 257.680 248.706,257.577 248.778,256.500 248.788 C 255.236 248.800,254.791 249.300,255.600 249.800 C 255.820 249.936,256.000 250.677,256.000 251.447 C 256.000 252.279,255.838 252.747,255.600 252.600 C 255.380 252.464,255.200 251.913,255.200 251.376 C 255.200 250.775,254.969 250.400,254.600 250.400 C 253.812 250.400,253.841 250.061,254.823 247.841 C 255.630 246.017,256.400 245.706,256.400 247.204 M261.600 246.600 C 261.600 246.946,261.238 247.200,260.744 247.200 C 260.273 247.200,259.658 247.515,259.377 247.899 C 258.802 248.686,258.540 248.563,258.338 247.413 C 258.233 246.816,258.490 246.562,259.400 246.360 C 261.322 245.935,261.600 245.965,261.600 246.600 M245.000 246.800 C 245.714 247.107,245.685 247.147,244.724 247.172 C 244.132 247.187,243.536 247.020,243.400 246.800 C 243.105 246.322,243.889 246.322,245.000 246.800 M248.400 246.800 C 247.610 247.311,246.284 247.311,246.600 246.800 C 246.736 246.580,247.332 246.403,247.924 246.406 C 248.766 246.411,248.869 246.497,248.400 246.800 M301.200 246.800 C 301.200 247.062,294.871 247.180,282.900 247.143 C 272.835 247.112,265.320 246.958,266.200 246.800 C 268.783 246.338,301.200 246.338,301.200 246.800 M33.200 256.200 C 33.200 262.200,33.345 265.600,33.600 265.600 C 33.855 265.600,34.000 262.200,34.000 256.200 C 34.000 250.200,33.855 246.800,33.600 246.800 C 33.345 246.800,33.200 250.200,33.200 256.200 M243.000 248.400 C 243.162 248.662,240.004 248.800,233.824 248.800 C 227.808 248.800,224.400 248.655,224.400 248.400 C 224.400 248.145,227.725 248.000,233.576 248.000 C 239.263 248.000,242.847 248.152,243.000 248.400 M246.140 248.302 C 246.467 248.831,245.925 250.800,245.453 250.797 C 245.031 250.794,244.000 249.038,244.000 248.320 C 244.000 247.914,245.890 247.898,246.140 248.302 M266.400 248.400 C 266.400 248.626,265.267 248.800,263.800 248.800 C 262.333 248.800,261.200 248.626,261.200 248.400 C 261.200 248.174,262.333 248.000,263.800 248.000 C 265.267 248.000,266.400 248.174,266.400 248.400 M260.400 249.200 C 260.400 249.420,260.130 249.600,259.800 249.600 C 259.470 249.600,259.200 249.420,259.200 249.200 C 259.200 248.980,259.470 248.800,259.800 248.800 C 260.130 248.800,260.400 248.980,260.400 249.200 M344.000 250.662 C 344.000 251.918,343.044 253.568,341.766 254.519 L 340.800 255.237 340.800 253.781 C 340.800 252.662,340.615 252.277,340.000 252.116 C 338.978 251.849,338.958 251.200,339.971 251.200 C 340.395 251.200,340.819 250.885,340.913 250.500 C 341.009 250.111,341.223 250.560,341.395 251.509 C 341.824 253.872,342.258 253.939,342.594 251.696 C 343.002 248.972,344.000 248.237,344.000 250.662 M241.600 250.000 C 241.600 250.220,241.060 250.400,240.400 250.400 C 239.740 250.400,239.200 250.220,239.200 250.000 C 239.200 249.780,239.740 249.600,240.400 249.600 C 241.060 249.600,241.600 249.780,241.600 250.000 M346.933 250.413 C 348.117 250.425,349.600 251.165,349.600 251.744 C 349.600 252.161,347.669 252.035,347.400 251.600 C 346.970 250.903,345.986 251.167,345.653 252.068 C 345.187 253.327,344.752 252.340,345.071 250.747 C 345.217 250.013,345.412 249.635,345.502 249.906 C 345.593 250.178,346.237 250.406,346.933 250.413 M237.600 251.200 C 237.600 251.640,237.420 252.000,237.200 252.000 C 236.980 252.000,236.800 251.640,236.800 251.200 C 236.800 250.760,236.980 250.400,237.200 250.400 C 237.420 250.400,237.600 250.760,237.600 251.200 M253.600 251.026 C 253.600 251.668,252.698 252.800,252.186 252.800 C 251.385 252.800,251.448 252.003,252.300 251.357 C 253.042 250.793,253.600 250.652,253.600 251.026 M241.858 252.601 C 242.393 253.136,242.379 253.233,241.730 253.479 C 240.662 253.883,240.073 254.568,239.776 255.752 C 239.483 256.921,239.208 257.034,238.430 256.300 C 238.006 255.900,237.863 255.900,237.717 256.300 C 237.372 257.239,236.800 256.802,236.800 255.600 C 236.800 254.403,237.382 253.952,237.702 254.900 C 237.805 255.202,238.490 254.736,239.436 253.720 C 241.262 251.760,241.094 251.837,241.858 252.601 M352.400 253.150 C 352.400 253.343,352.513 254.063,352.650 254.750 C 352.811 255.557,352.741 256.000,352.450 256.000 C 352.203 256.000,352.000 255.460,352.000 254.800 C 352.000 254.140,351.820 253.600,351.600 253.600 C 351.380 253.600,351.200 253.420,351.200 253.200 C 351.200 252.980,351.470 252.800,351.800 252.800 C 352.130 252.800,352.400 252.957,352.400 253.150 M251.525 254.500 C 251.629 255.047,251.383 255.200,250.401 255.200 C 249.164 255.200,248.000 255.951,248.000 256.749 C 248.000 256.972,247.460 257.474,246.800 257.864 C 246.140 258.254,245.600 258.894,245.600 259.286 C 245.600 259.726,245.302 260.000,244.824 260.000 C 243.642 260.000,244.573 258.504,247.431 255.812 C 249.843 253.540,251.256 253.087,251.525 254.500 M254.800 254.433 C 254.800 255.408,253.865 255.270,253.671 254.267 C 253.594 253.872,253.798 253.600,254.171 253.600 C 254.542 253.600,254.800 253.942,254.800 254.433 M347.600 254.000 C 347.600 254.220,347.251 254.400,346.824 254.400 C 346.397 254.400,345.936 254.220,345.800 254.000 C 345.660 253.773,345.996 253.600,346.576 253.600 C 347.139 253.600,347.600 253.780,347.600 254.000 M339.929 256.049 C 339.771 257.709,337.547 258.267,335.310 257.210 C 333.640 256.421,333.634 255.833,335.300 256.179 C 338.084 256.757,339.007 256.660,338.913 255.800 C 338.864 255.360,338.915 254.745,339.026 254.433 C 339.389 253.407,340.066 254.619,339.929 256.049 M268.800 255.200 C 268.800 255.966,268.533 256.000,262.600 256.000 C 256.667 256.000,256.400 255.966,256.400 255.200 C 256.400 254.434,256.667 254.400,262.600 254.400 C 268.533 254.400,268.800 254.434,268.800 255.200 M349.600 255.000 C 349.600 255.330,349.420 255.600,349.200 255.600 C 348.980 255.600,348.800 255.330,348.800 255.000 C 348.800 254.670,348.980 254.400,349.200 254.400 C 349.420 254.400,349.600 254.670,349.600 255.000 M249.745 257.000 C 249.947 257.528,254.923 257.600,291.187 257.600 C 318.396 257.600,332.400 257.736,332.400 258.000 C 332.400 258.436,251.315 258.581,249.700 258.148 C 249.171 258.006,248.800 257.596,248.800 257.153 C 248.800 256.254,249.420 256.153,249.745 257.000 M352.000 256.800 C 352.000 257.020,351.325 257.187,350.500 257.172 C 349.297 257.149,349.158 257.076,349.800 256.800 C 350.912 256.322,352.000 256.322,352.000 256.800 M347.800 257.200 C 348.467 257.486,348.379 257.548,347.276 257.572 C 346.490 257.589,346.053 257.438,346.200 257.200 C 346.488 256.734,346.715 256.734,347.800 257.200 M337.783 258.372 C 338.079 258.851,337.326 259.325,336.793 258.996 C 336.346 258.719,336.640 258.000,337.200 258.000 C 337.394 258.000,337.656 258.168,337.783 258.372 M350.400 258.808 C 351.547 259.063,351.276 259.127,348.900 259.160 C 346.627 259.191,346.000 259.076,346.000 258.625 C 346.000 258.032,347.128 258.079,350.400 258.808 M335.200 258.800 C 335.200 259.020,334.739 259.200,334.176 259.200 C 333.596 259.200,333.260 259.027,333.400 258.800 C 333.536 258.580,333.997 258.400,334.424 258.400 C 334.851 258.400,335.200 258.580,335.200 258.800 M237.339 259.500 C 237.441 259.665,234.639 259.742,231.111 259.672 C 226.919 259.588,224.548 259.692,224.268 259.972 C 223.663 260.577,223.200 260.503,223.200 259.800 C 223.200 259.150,236.941 258.859,237.339 259.500 M249.200 259.557 C 249.200 260.024,248.032 260.467,247.564 260.178 C 246.859 259.742,247.212 259.200,248.200 259.200 C 248.750 259.200,249.200 259.361,249.200 259.557 M311.900 259.500 C 300.515 259.559,281.885 259.559,270.500 259.500 C 259.115 259.441,268.430 259.393,291.200 259.393 C 313.970 259.393,323.285 259.441,311.900 259.500 M345.600 259.600 C 345.600 259.820,345.240 260.000,344.800 260.000 C 344.360 260.000,344.000 259.820,344.000 259.600 C 344.000 259.380,344.360 259.200,344.800 259.200 C 345.240 259.200,345.600 259.380,345.600 259.600 M46.259 274.198 C 45.518 274.939,45.250 287.336,45.965 287.778 C 46.722 288.246,352.895 288.019,353.460 287.550 C 354.053 287.058,354.277 274.614,353.700 274.267 C 352.656 273.639,46.887 273.571,46.259 274.198 M353.600 280.734 L 353.600 287.067 275.900 287.334 C 233.165 287.480,164.045 287.600,122.300 287.600 L 46.400 287.600 46.400 281.000 L 46.400 274.400 200.000 274.400 L 353.600 274.400 353.600 280.734 M33.276 287.500 L 33.400 289.000 39.300 289.111 C 43.141 289.183,45.200 289.078,45.200 288.811 C 45.200 288.549,43.164 288.400,39.600 288.400 L 34.000 288.400 34.000 287.200 C 34.000 286.540,33.809 286.000,33.576 286.000 C 33.330 286.000,33.204 286.632,33.276 287.500 " stroke="none" fill="#444443" fill-rule="evenodd"></path><path id="path3" d="M226.400 99.117 C 226.400 99.405,225.211 99.610,223.100 99.684 L 219.800 99.800 219.689 105.690 L 219.579 111.580 213.389 111.706 L 207.199 111.831 213.500 111.816 L 219.800 111.800 219.911 105.900 L 220.021 100.000 223.187 100.000 C 226.050 100.000,227.329 99.595,226.640 98.907 C 226.508 98.775,226.400 98.869,226.400 99.117 M227.200 99.192 C 227.200 99.408,227.605 99.674,228.100 99.782 C 229.648 100.122,234.736 100.215,234.540 99.900 C 234.437 99.735,232.923 99.600,231.176 99.600 C 229.325 99.600,228.000 99.433,228.000 99.200 C 228.000 98.980,227.820 98.800,227.600 98.800 C 227.380 98.800,227.200 98.977,227.200 99.192 M235.061 111.700 C 235.163 111.865,238.297 112.000,242.024 112.000 L 248.800 112.000 248.800 123.000 L 248.800 134.000 242.880 134.000 C 235.586 134.000,236.000 134.349,236.000 128.200 C 236.000 121.985,236.575 122.400,227.969 122.400 C 219.673 122.400,219.899 122.287,219.662 126.549 C 219.575 128.117,219.301 129.549,219.052 129.730 C 218.722 129.972,218.735 130.116,219.100 130.264 C 219.475 130.416,219.600 132.312,219.600 137.819 C 219.600 146.640,220.124 146.000,212.906 146.000 C 206.479 146.000,206.802 145.684,206.794 151.980 C 206.786 158.632,208.203 157.965,193.949 158.023 C 187.228 158.051,181.475 158.230,181.164 158.421 C 180.740 158.683,180.550 160.133,180.400 164.268 C 180.162 170.803,180.759 170.300,173.176 170.360 C 169.827 170.387,167.936 170.567,167.502 170.900 C 166.887 171.372,166.356 177.338,166.478 182.400 C 166.782 195.017,167.399 193.986,159.549 193.994 C 152.376 194.001,152.793 193.628,152.612 200.214 C 152.438 206.505,152.983 206.082,145.251 205.928 C 140.536 205.835,138.799 205.925,138.799 206.266 C 138.800 206.794,148.641 206.953,151.400 206.469 L 153.000 206.189 153.200 200.727 C 153.444 194.052,152.763 194.625,160.632 194.473 L 167.200 194.346 167.200 183.253 C 167.200 169.961,166.521 171.200,173.804 171.200 C 181.053 171.200,180.645 171.562,180.940 164.881 C 181.070 161.956,181.282 159.391,181.411 159.181 C 181.553 158.953,186.468 158.800,193.650 158.800 C 208.437 158.800,207.200 159.324,207.200 153.062 C 207.200 146.509,206.882 146.821,213.680 146.699 C 220.825 146.570,220.160 147.766,220.400 134.613 C 220.510 128.592,220.725 123.540,220.878 123.388 C 221.212 123.055,234.279 123.078,234.820 123.413 C 235.029 123.542,235.200 125.762,235.200 128.347 C 235.200 134.691,234.826 134.363,242.200 134.494 L 248.200 134.600 248.400 140.133 C 248.652 147.110,248.326 146.798,255.376 146.806 C 262.178 146.814,261.790 146.459,261.844 152.733 C 261.900 159.287,261.423 158.800,267.795 158.800 C 274.683 158.800,274.400 158.535,274.400 164.980 C 274.400 171.181,274.121 170.916,280.721 170.987 C 283.514 171.017,286.430 171.178,287.200 171.345 C 288.588 171.646,288.591 171.643,287.600 171.038 C 286.845 170.578,285.328 170.423,281.400 170.408 C 274.335 170.380,275.024 171.680,274.887 158.134 C 274.823 151.811,274.687 146.554,274.585 146.452 C 274.483 146.350,274.400 148.967,274.400 152.267 L 274.400 158.267 269.044 158.349 C 261.999 158.457,262.322 158.790,262.480 151.588 C 262.546 148.556,262.465 146.158,262.300 146.261 C 262.135 146.363,261.966 144.592,261.923 142.324 L 261.847 138.200 261.623 142.000 L 261.400 145.800 255.855 145.912 C 252.159 145.986,250.128 145.872,249.764 145.570 C 249.320 145.201,249.217 142.069,249.209 128.679 C 249.204 119.638,249.065 112.105,248.899 111.939 C 248.505 111.545,234.818 111.308,235.061 111.700 M206.955 117.400 C 206.956 120.260,207.020 121.378,207.097 119.883 C 207.174 118.389,207.174 116.049,207.096 114.683 C 207.018 113.318,206.955 114.540,206.955 117.400 M193.200 122.400 C 193.200 122.620,193.470 122.800,193.800 122.800 C 194.130 122.800,194.400 122.620,194.400 122.400 C 194.400 122.180,194.130 122.000,193.800 122.000 C 193.470 122.000,193.200 122.180,193.200 122.400 M190.105 134.287 C 190.714 134.379,191.614 134.377,192.105 134.282 C 192.597 134.187,192.100 134.111,191.000 134.114 C 189.900 134.117,189.497 134.195,190.105 134.287 M339.717 140.200 C 339.684 143.500,339.811 146.560,340.000 147.000 C 340.189 147.440,340.356 147.580,340.372 147.310 C 340.392 146.952,342.028 146.791,346.467 146.710 C 350.993 146.628,352.560 146.470,352.637 146.090 C 352.694 145.810,352.649 145.764,352.537 145.990 C 352.411 146.243,349.982 146.400,346.177 146.400 L 340.021 146.400 339.899 140.300 L 339.778 134.200 339.717 140.200 M327.491 146.289 C 328.201 146.377,329.461 146.379,330.291 146.292 C 331.121 146.205,330.540 146.133,329.000 146.131 C 327.460 146.129,326.781 146.200,327.491 146.289 M353.362 153.000 C 353.362 156.520,353.424 157.906,353.498 156.081 C 353.572 154.256,353.572 151.376,353.497 149.681 C 353.422 147.986,353.361 149.480,353.362 153.000 M340.054 156.624 C 340.025 157.076,339.736 157.796,339.413 158.224 C 338.497 159.434,338.698 159.838,339.628 158.655 C 340.112 158.040,340.384 157.228,340.282 156.701 C 340.125 155.882,340.104 155.875,340.054 156.624 M326.313 162.600 C 326.483 170.349,326.695 171.252,326.754 164.476 C 326.783 161.082,326.943 159.241,327.195 159.397 C 327.422 159.537,327.489 159.377,327.353 159.021 C 327.222 158.679,326.966 158.400,326.785 158.400 C 326.604 158.400,326.394 157.995,326.319 157.500 C 326.244 157.005,326.241 159.300,326.313 162.600 M155.513 158.295 C 156.676 158.376,158.476 158.376,159.513 158.293 C 160.551 158.211,159.600 158.145,157.400 158.146 C 155.200 158.147,154.351 158.214,155.513 158.295 M330.599 158.680 C 331.258 158.786,331.947 159.081,332.129 159.336 C 332.353 159.649,332.409 159.605,332.300 159.200 C 332.200 158.831,331.612 158.578,330.769 158.544 C 329.515 158.492,329.501 158.503,330.599 158.680 M153.279 161.867 C 153.228 163.736,153.026 164.795,152.700 164.912 C 152.425 165.010,152.338 165.238,152.507 165.419 C 153.221 166.182,153.630 164.756,153.498 161.961 L 153.359 159.000 153.279 161.867 M353.692 177.769 C 353.611 192.119,353.521 194.224,352.961 194.843 C 352.604 195.238,352.455 195.766,352.625 196.040 C 352.944 196.557,352.880 229.547,352.558 230.068 C 351.923 231.095,347.627 231.202,307.454 231.187 C 271.979 231.174,265.296 231.084,264.136 230.599 C 262.368 229.860,262.447 229.528,262.312 238.295 L 262.200 245.589 265.000 245.509 C 266.540 245.465,275.095 245.493,284.012 245.570 C 298.733 245.699,300.346 245.648,301.554 245.024 C 302.611 244.477,303.432 244.390,305.542 244.601 C 307.004 244.747,318.332 244.945,330.715 245.043 L 353.230 245.219 353.170 252.014 C 353.137 255.751,352.941 258.913,352.735 259.040 C 352.515 259.176,352.557 259.507,352.838 259.845 C 353.598 260.761,352.950 260.993,349.468 261.052 C 347.671 261.082,346.969 261.027,347.909 260.930 C 350.006 260.713,349.751 260.000,347.576 260.000 C 346.561 260.000,346.000 260.182,346.000 260.513 C 346.000 260.869,345.220 261.049,343.457 261.101 C 342.058 261.143,340.474 261.344,339.937 261.548 C 338.570 262.068,336.735 261.638,336.501 260.743 C 336.269 259.858,335.200 259.740,335.200 260.600 C 335.200 260.933,334.844 261.200,334.400 261.200 C 333.956 261.200,333.600 260.933,333.600 260.600 C 333.600 259.822,332.953 259.824,332.654 260.603 C 332.366 261.355,222.400 261.511,222.400 260.760 C 222.400 260.531,222.108 260.051,221.751 259.694 C 220.682 258.625,221.883 258.459,230.900 258.428 C 238.611 258.402,240.104 258.594,238.739 259.437 C 238.102 259.832,239.479 260.800,240.676 260.800 C 241.812 260.800,241.872 260.177,240.800 259.507 C 240.360 259.232,240.000 258.691,240.000 258.304 C 240.000 257.500,240.674 257.550,230.000 257.559 C 225.930 257.563,222.240 257.406,221.800 257.211 C 221.174 256.933,221.376 256.850,222.733 256.828 C 224.561 256.798,224.967 255.922,223.269 255.672 C 222.361 255.539,221.861 249.600,222.758 249.600 C 223.198 249.600,223.543 246.412,223.131 246.157 C 222.499 245.767,221.434 248.042,221.900 248.788 C 222.154 249.195,222.193 249.647,221.992 249.849 C 221.799 250.042,221.572 251.460,221.488 253.000 C 221.404 254.540,221.324 253.429,221.311 250.531 C 221.283 244.804,221.185 244.387,219.876 244.425 L 219.000 244.451 219.900 244.812 C 220.793 245.172,220.800 245.237,220.800 253.571 L 220.800 261.968 280.300 262.084 C 313.025 262.148,342.905 262.147,346.700 262.082 L 353.600 261.964 353.600 253.205 C 353.600 248.235,353.439 244.348,353.228 244.217 C 353.023 244.091,332.593 243.987,307.828 243.986 L 262.800 243.985 262.800 237.996 L 262.800 232.007 308.049 232.021 C 332.937 232.028,353.412 231.922,353.549 231.784 C 353.940 231.394,354.223 197.259,353.992 178.400 L 353.783 161.400 353.692 177.769 M150.200 170.000 L 147.800 170.266 150.076 170.333 C 151.328 170.370,152.464 170.220,152.600 170.000 C 152.736 169.780,152.792 169.630,152.724 169.667 C 152.656 169.704,151.520 169.854,150.200 170.000 M143.500 170.289 C 144.215 170.378,145.385 170.378,146.100 170.289 C 146.815 170.201,146.230 170.128,144.800 170.128 C 143.370 170.128,142.785 170.201,143.500 170.289 M324.800 171.025 C 323.505 171.515,323.479 171.557,324.451 171.577 C 325.029 171.590,325.726 171.330,326.000 171.000 C 326.274 170.670,326.431 170.421,326.349 170.448 C 326.267 170.474,325.570 170.734,324.800 171.025 M111.500 182.432 C 110.907 182.777,110.812 183.373,110.881 186.320 L 110.963 189.800 111.097 186.559 C 111.277 182.187,110.549 182.417,124.600 182.291 L 136.200 182.187 124.200 182.106 C 116.622 182.054,111.942 182.175,111.500 182.432 M365.786 210.200 C 365.786 221.420,365.837 226.068,365.900 220.528 C 365.962 214.988,365.962 205.808,365.900 200.128 C 365.837 194.448,365.786 198.980,365.786 210.200 M81.500 194.297 C 83.095 194.373,85.705 194.373,87.300 194.297 C 88.895 194.221,87.590 194.159,84.400 194.159 C 81.210 194.159,79.905 194.221,81.500 194.297 M102.700 194.282 C 103.195 194.378,104.005 194.378,104.500 194.282 C 104.995 194.187,104.590 194.109,103.600 194.109 C 102.610 194.109,102.205 194.187,102.700 194.282 M124.780 194.700 C 135.188 194.784,138.636 194.932,138.874 195.305 C 139.095 195.654,139.190 195.593,139.194 195.100 C 139.200 194.445,138.300 194.406,125.100 194.495 L 111.000 194.589 124.780 194.700 M294.707 195.090 C 295.426 195.179,296.506 195.177,297.107 195.086 C 297.708 194.995,297.120 194.922,295.800 194.924 C 294.480 194.926,293.988 195.001,294.707 195.090 M350.600 195.600 C 350.736 195.820,351.107 196.000,351.424 196.000 C 351.741 196.000,352.000 195.820,352.000 195.600 C 352.000 195.380,351.629 195.200,351.176 195.200 C 350.723 195.200,350.464 195.380,350.600 195.600 M65.200 206.817 L 59.400 207.034 65.300 207.117 C 71.112 207.199,71.201 207.213,71.246 208.100 C 71.280 208.757,71.341 208.815,71.473 208.313 C 71.887 206.737,71.270 206.590,65.200 206.817 M248.654 208.712 C 247.832 210.042,248.448 218.797,249.380 219.031 C 250.679 219.357,251.456 218.877,250.626 218.262 C 249.794 217.645,249.064 213.507,249.328 210.905 C 249.521 209.013,249.171 207.876,248.654 208.712 M71.600 214.200 C 71.600 215.410,71.780 216.400,72.000 216.400 C 72.220 216.400,72.400 215.410,72.400 214.200 C 72.400 212.990,72.220 212.000,72.000 212.000 C 71.780 212.000,71.600 212.990,71.600 214.200 M58.920 217.200 C 58.920 218.410,58.995 218.905,59.087 218.300 C 59.178 217.695,59.178 216.705,59.087 216.100 C 58.995 215.495,58.920 215.990,58.920 217.200 M46.093 222.000 C 46.093 222.770,46.175 223.085,46.276 222.700 C 46.376 222.315,46.376 221.685,46.276 221.300 C 46.175 220.915,46.093 221.230,46.093 222.000 M46.083 227.100 C 46.016 230.085,45.884 230.800,45.400 230.800 C 44.718 230.800,44.596 231.427,45.205 231.803 C 45.466 231.964,45.598 236.911,45.578 245.752 C 45.545 260.628,45.622 261.476,47.062 262.024 C 47.836 262.318,119.419 262.497,197.000 262.399 C 202.075 262.393,206.469 262.218,206.800 262.009 C 207.291 261.699,207.436 260.118,207.600 253.318 L 207.800 245.006 209.000 244.751 L 210.200 244.495 208.924 244.447 C 208.222 244.421,207.536 244.220,207.400 244.000 C 206.628 242.751,206.406 244.355,206.308 251.889 L 206.200 260.177 205.203 260.674 C 204.094 261.226,51.666 261.421,48.600 260.874 L 47.000 260.589 46.715 255.194 C 46.299 247.315,46.355 232.285,46.802 231.838 C 47.011 231.629,49.931 231.355,53.291 231.229 L 59.400 231.000 59.433 227.200 L 59.465 223.400 59.233 227.000 L 59.000 230.600 52.715 230.710 L 46.430 230.820 46.298 227.110 L 46.166 223.400 46.083 227.100 M196.239 231.137 C 195.712 231.989,197.425 232.400,199.252 231.861 L 201.000 231.345 199.442 231.044 C 198.317 230.826,197.788 230.889,197.542 231.271 C 197.259 231.708,197.139 231.705,196.850 231.257 C 196.619 230.899,196.411 230.858,196.239 231.137 M203.200 231.821 C 203.200 231.942,203.744 232.231,204.409 232.463 C 205.075 232.695,205.877 233.361,206.193 233.942 L 206.768 235.000 206.784 233.300 L 206.800 231.600 205.000 231.600 C 204.010 231.600,203.200 231.699,203.200 231.821 M365.791 266.200 C 365.791 285.120,365.840 292.801,365.900 283.270 C 365.960 273.738,365.960 258.258,365.900 248.870 C 365.840 239.481,365.791 247.280,365.791 266.200 M206.531 239.400 C 206.533 240.940,206.605 241.521,206.692 240.691 C 206.779 239.861,206.777 238.601,206.689 237.891 C 206.600 237.181,206.529 237.860,206.531 239.400 M238.500 245.494 C 239.545 245.576,241.255 245.576,242.300 245.494 C 243.345 245.412,242.490 245.344,240.400 245.344 C 238.310 245.344,237.455 245.412,238.500 245.494 M308.700 245.876 C 307.943 246.074,307.692 248.000,308.424 248.000 C 308.657 248.000,308.736 248.180,308.600 248.400 C 308.209 249.032,306.678 248.894,306.926 248.249 C 307.138 247.695,306.517 246.800,305.920 246.800 C 305.744 246.800,305.600 247.141,305.600 247.557 C 305.600 248.642,304.546 248.896,303.114 248.155 C 301.968 247.563,301.850 247.567,301.493 248.206 C 301.216 248.700,301.023 248.761,300.813 248.421 C 300.441 247.819,269.629 247.811,269.027 248.413 C 268.814 248.626,268.316 248.800,267.920 248.800 C 267.524 248.800,267.200 248.980,267.200 249.200 C 267.200 249.420,267.560 249.600,268.000 249.600 C 268.667 249.600,268.800 249.867,268.800 251.200 L 268.800 252.800 300.822 252.800 L 332.844 252.800 332.722 250.900 L 332.600 249.000 323.200 248.789 L 313.800 248.578 322.400 248.483 C 330.964 248.389,332.800 248.225,332.800 247.553 C 332.800 247.051,314.111 247.097,313.800 247.600 C 313.389 248.265,310.556 248.070,309.949 247.335 C 309.519 246.814,309.509 246.633,309.902 246.501 C 310.179 246.408,310.303 246.167,310.179 245.966 C 309.943 245.583,309.842 245.577,308.700 245.876 M311.655 245.789 C 312.042 246.176,345.200 246.369,345.200 245.984 C 345.200 245.745,338.848 245.600,328.333 245.600 C 319.057 245.600,311.552 245.685,311.655 245.789 M347.600 246.000 C 347.600 246.220,348.590 246.400,349.800 246.400 L 352.000 246.400 352.047 247.700 L 352.095 249.000 352.379 247.800 C 352.581 246.943,352.489 246.457,352.055 246.100 C 351.334 245.507,347.600 245.423,347.600 246.000 M254.823 247.841 C 253.841 250.061,253.812 250.400,254.600 250.400 C 254.969 250.400,255.200 250.775,255.200 251.376 C 255.200 251.913,255.380 252.464,255.600 252.600 C 255.838 252.747,256.000 252.279,256.000 251.447 C 256.000 250.677,255.820 249.936,255.600 249.800 C 254.791 249.300,255.236 248.800,256.500 248.788 C 257.577 248.778,257.680 248.706,257.100 248.368 C 256.715 248.144,256.400 247.620,256.400 247.204 C 256.400 245.706,255.630 246.017,254.823 247.841 M259.400 246.360 C 258.490 246.562,258.233 246.816,258.338 247.413 C 258.540 248.563,258.802 248.686,259.377 247.899 C 259.658 247.515,260.273 247.200,260.744 247.200 C 261.238 247.200,261.600 246.946,261.600 246.600 C 261.600 245.965,261.322 245.935,259.400 246.360 M33.500 246.665 C 34.136 246.922,34.235 265.600,33.600 265.600 C 33.380 265.600,33.200 265.870,33.200 266.200 C 33.200 266.530,33.380 266.800,33.600 266.800 C 33.820 266.800,34.000 267.081,34.000 267.424 C 34.000 267.767,33.820 267.936,33.600 267.800 C 33.380 267.664,33.200 267.758,33.200 268.010 C 33.200 268.261,33.425 268.392,33.700 268.300 C 34.617 267.995,34.631 246.391,33.715 246.432 C 33.295 246.450,33.207 246.547,33.500 246.665 M243.400 246.800 C 243.536 247.020,244.132 247.187,244.724 247.172 C 245.685 247.147,245.714 247.107,245.000 246.800 C 243.889 246.322,243.105 246.322,243.400 246.800 M246.600 246.800 C 246.284 247.311,247.610 247.311,248.400 246.800 C 248.869 246.497,248.766 246.411,247.924 246.406 C 247.332 246.403,246.736 246.580,246.600 246.800 M266.200 246.800 C 265.320 246.958,272.835 247.112,282.900 247.143 C 294.871 247.180,301.200 247.062,301.200 246.800 C 301.200 246.338,268.783 246.338,266.200 246.800 M224.400 248.400 C 224.400 248.655,227.808 248.800,233.824 248.800 C 240.004 248.800,243.162 248.662,243.000 248.400 C 242.847 248.152,239.263 248.000,233.576 248.000 C 227.725 248.000,224.400 248.145,224.400 248.400 M244.000 248.320 C 244.000 249.038,245.031 250.794,245.453 250.797 C 245.925 250.800,246.467 248.831,246.140 248.302 C 245.890 247.898,244.000 247.914,244.000 248.320 M261.200 248.400 C 261.200 248.626,262.333 248.800,263.800 248.800 C 265.267 248.800,266.400 248.626,266.400 248.400 C 266.400 248.174,265.267 248.000,263.800 248.000 C 262.333 248.000,261.200 248.174,261.200 248.400 M259.200 249.200 C 259.200 249.420,259.470 249.600,259.800 249.600 C 260.130 249.600,260.400 249.420,260.400 249.200 C 260.400 248.980,260.130 248.800,259.800 248.800 C 259.470 248.800,259.200 248.980,259.200 249.200 M343.067 249.493 C 342.963 249.662,342.750 250.653,342.594 251.696 C 342.258 253.939,341.824 253.872,341.395 251.509 C 341.223 250.560,341.009 250.111,340.913 250.500 C 340.819 250.885,340.395 251.200,339.971 251.200 C 338.958 251.200,338.978 251.849,340.000 252.116 C 340.615 252.277,340.800 252.662,340.800 253.781 L 340.800 255.237 341.766 254.519 C 343.044 253.568,344.000 251.918,344.000 250.662 C 344.000 249.644,343.420 248.919,343.067 249.493 M239.200 250.000 C 239.200 250.220,239.740 250.400,240.400 250.400 C 241.060 250.400,241.600 250.220,241.600 250.000 C 241.600 249.780,241.060 249.600,240.400 249.600 C 239.740 249.600,239.200 249.780,239.200 250.000 M345.071 250.747 C 344.752 252.340,345.187 253.327,345.653 252.068 C 345.986 251.167,346.970 250.903,347.400 251.600 C 347.669 252.035,349.600 252.161,349.600 251.744 C 349.600 251.165,348.117 250.425,346.933 250.413 C 346.237 250.406,345.593 250.178,345.502 249.906 C 345.412 249.635,345.217 250.013,345.071 250.747 M236.800 251.200 C 236.800 251.640,236.980 252.000,237.200 252.000 C 237.420 252.000,237.600 251.640,237.600 251.200 C 237.600 250.760,237.420 250.400,237.200 250.400 C 236.980 250.400,236.800 250.760,236.800 251.200 M252.300 251.357 C 251.448 252.003,251.385 252.800,252.186 252.800 C 252.698 252.800,253.600 251.668,253.600 251.026 C 253.600 250.652,253.042 250.793,252.300 251.357 M239.436 253.720 C 238.490 254.736,237.805 255.202,237.702 254.900 C 237.382 253.952,236.800 254.403,236.800 255.600 C 236.800 256.802,237.372 257.239,237.717 256.300 C 237.863 255.900,238.006 255.900,238.430 256.300 C 239.208 257.034,239.483 256.921,239.776 255.752 C 240.073 254.568,240.662 253.883,241.730 253.479 C 242.379 253.233,242.393 253.136,241.858 252.601 C 241.094 251.837,241.262 251.760,239.436 253.720 M351.200 253.200 C 351.200 253.420,351.380 253.600,351.600 253.600 C 351.820 253.600,352.000 254.140,352.000 254.800 C 352.000 255.460,352.203 256.000,352.450 256.000 C 352.741 256.000,352.811 255.557,352.650 254.750 C 352.513 254.063,352.400 253.343,352.400 253.150 C 352.400 252.957,352.130 252.800,351.800 252.800 C 351.470 252.800,351.200 252.980,351.200 253.200 M247.431 255.812 C 244.573 258.504,243.642 260.000,244.824 260.000 C 245.302 260.000,245.600 259.726,245.600 259.286 C 245.600 258.894,246.140 258.254,246.800 257.864 C 247.460 257.474,248.000 256.972,248.000 256.749 C 248.000 255.951,249.164 255.200,250.401 255.200 C 251.383 255.200,251.629 255.047,251.525 254.500 C 251.256 253.087,249.843 253.540,247.431 255.812 M253.671 254.267 C 253.865 255.270,254.800 255.408,254.800 254.433 C 254.800 253.942,254.542 253.600,254.171 253.600 C 253.798 253.600,253.594 253.872,253.671 254.267 M345.800 254.000 C 345.936 254.220,346.397 254.400,346.824 254.400 C 347.251 254.400,347.600 254.220,347.600 254.000 C 347.600 253.780,347.139 253.600,346.576 253.600 C 345.996 253.600,345.660 253.773,345.800 254.000 M339.026 254.433 C 338.915 254.745,338.864 255.360,338.913 255.800 C 339.007 256.660,338.084 256.757,335.300 256.179 C 333.634 255.833,333.640 256.421,335.310 257.210 C 337.547 258.267,339.771 257.709,339.929 256.049 C 340.066 254.619,339.389 253.407,339.026 254.433 M256.400 255.200 C 256.400 255.966,256.667 256.000,262.600 256.000 C 268.533 256.000,268.800 255.966,268.800 255.200 C 268.800 254.434,268.533 254.400,262.600 254.400 C 256.667 254.400,256.400 254.434,256.400 255.200 M348.800 255.000 C 348.800 255.330,348.980 255.600,349.200 255.600 C 349.420 255.600,349.600 255.330,349.600 255.000 C 349.600 254.670,349.420 254.400,349.200 254.400 C 348.980 254.400,348.800 254.670,348.800 255.000 M248.800 257.153 C 248.800 257.596,249.171 258.006,249.700 258.148 C 251.315 258.581,332.400 258.436,332.400 258.000 C 332.400 257.736,318.396 257.600,291.187 257.600 C 254.923 257.600,249.947 257.528,249.745 257.000 C 249.420 256.153,248.800 256.254,248.800 257.153 M349.800 256.800 C 349.158 257.076,349.297 257.149,350.500 257.172 C 351.325 257.187,352.000 257.020,352.000 256.800 C 352.000 256.322,350.912 256.322,349.800 256.800 M346.200 257.200 C 346.053 257.438,346.490 257.589,347.276 257.572 C 348.379 257.548,348.467 257.486,347.800 257.200 C 346.715 256.734,346.488 256.734,346.200 257.200 M336.617 258.372 C 336.321 258.851,337.074 259.325,337.607 258.996 C 338.054 258.719,337.760 258.000,337.200 258.000 C 337.006 258.000,336.744 258.168,336.617 258.372 M346.000 258.625 C 346.000 259.076,346.627 259.191,348.900 259.160 C 351.276 259.127,351.547 259.063,350.400 258.808 C 347.128 258.079,346.000 258.032,346.000 258.625 M333.400 258.800 C 333.260 259.027,333.596 259.200,334.176 259.200 C 334.739 259.200,335.200 259.020,335.200 258.800 C 335.200 258.580,334.851 258.400,334.424 258.400 C 333.997 258.400,333.536 258.580,333.400 258.800 M223.200 259.800 C 223.200 260.503,223.663 260.577,224.268 259.972 C 224.548 259.692,226.919 259.588,231.111 259.672 C 234.639 259.742,237.441 259.665,237.339 259.500 C 236.941 258.859,223.200 259.150,223.200 259.800 M247.200 259.576 C 247.200 260.151,247.855 260.431,248.564 260.159 C 249.541 259.784,249.319 259.200,248.200 259.200 C 247.650 259.200,247.200 259.369,247.200 259.576 M270.500 259.500 C 281.885 259.559,300.515 259.559,311.900 259.500 C 323.285 259.441,313.970 259.393,291.200 259.393 C 268.430 259.393,259.115 259.441,270.500 259.500 M344.000 259.600 C 344.000 259.820,344.360 260.000,344.800 260.000 C 345.240 260.000,345.600 259.820,345.600 259.600 C 345.600 259.380,345.240 259.200,344.800 259.200 C 344.360 259.200,344.000 259.380,344.000 259.600 M124.500 273.476 C 124.885 273.576,125.515 273.576,125.900 273.476 C 126.285 273.375,125.970 273.293,125.200 273.293 C 124.430 273.293,124.115 273.375,124.500 273.476 M204.700 273.900 C 217.295 273.959,237.905 273.959,250.500 273.900 C 263.095 273.841,252.790 273.793,227.600 273.793 C 202.410 273.793,192.105 273.841,204.700 273.900 M291.900 273.900 C 298.775 273.961,310.025 273.961,316.900 273.900 C 323.775 273.838,318.150 273.788,304.400 273.788 C 290.650 273.788,285.025 273.838,291.900 273.900 M333.600 273.883 C 344.099 274.165,353.908 274.174,353.739 273.900 C 353.636 273.735,348.118 273.638,341.476 273.685 C 334.834 273.732,331.290 273.821,333.600 273.883 M354.153 279.400 C 354.153 282.040,354.218 283.068,354.297 281.684 C 354.375 280.301,354.374 278.141,354.295 276.884 C 354.216 275.628,354.152 276.760,354.153 279.400 M33.200 285.567 C 33.200 285.805,33.369 286.000,33.575 286.000 C 33.781 286.000,34.029 286.585,34.126 287.300 C 34.273 288.383,34.293 288.339,34.251 287.031 C 34.208 285.705,33.200 284.301,33.200 285.567 M45.949 288.110 C 46.120 288.280,49.396 288.370,53.230 288.309 L 60.200 288.198 52.919 287.999 C 48.915 287.890,45.778 287.939,45.949 288.110 M86.069 288.300 C 100.297 288.358,123.697 288.358,138.069 288.300 C 152.441 288.242,140.800 288.194,112.200 288.194 C 83.600 288.194,71.841 288.242,86.069 288.300 M208.900 288.294 C 209.945 288.376,211.655 288.376,212.700 288.294 C 213.745 288.212,212.890 288.144,210.800 288.144 C 208.710 288.144,207.855 288.212,208.900 288.294 " stroke="none" fill="#443c44" fill-rule="evenodd"></path><path id="path4" d="M226.668 99.366 C 226.474 99.872,225.776 100.000,223.223 100.000 L 220.021 100.000 219.911 105.900 L 219.800 111.800 213.500 111.910 L 207.200 112.020 207.200 117.110 L 207.201 122.200 200.800 122.065 C 196.373 121.971,194.400 122.064,194.400 122.365 C 194.400 122.604,194.110 122.800,193.755 122.800 C 193.184 122.800,193.127 123.450,193.263 128.400 C 193.362 132.014,193.272 134.027,193.008 134.075 C 192.784 134.116,189.900 134.161,186.600 134.175 L 180.600 134.200 180.489 140.100 L 180.379 146.000 173.589 146.000 L 166.800 146.000 166.800 152.243 C 166.800 157.844,166.733 158.460,166.149 158.236 C 165.791 158.098,162.821 158.107,159.549 158.255 L 153.600 158.523 153.600 161.874 C 153.600 164.547,153.473 165.274,152.973 165.466 C 152.489 165.651,152.370 166.217,152.449 167.953 L 152.552 170.200 146.376 170.200 L 140.200 170.200 140.077 172.121 C 140.000 173.337,139.742 174.124,139.377 174.264 C 138.579 174.570,138.598 177.437,139.400 177.745 C 140.314 178.095,140.219 181.455,139.281 181.957 C 138.869 182.177,133.064 182.359,125.656 182.383 C 110.967 182.430,111.200 182.384,111.200 185.235 C 111.200 186.248,111.086 188.680,110.947 190.639 L 110.694 194.200 91.647 194.200 C 76.771 194.200,72.412 194.313,71.743 194.718 C 70.807 195.283,70.347 205.439,71.196 206.800 C 71.521 207.320,74.167 207.400,91.041 207.400 C 112.307 207.400,110.865 207.564,111.388 205.084 C 111.517 204.470,111.798 204.075,112.012 204.207 C 112.245 204.351,112.400 203.575,112.400 202.266 C 112.400 200.697,112.232 200.021,111.800 199.855 C 111.351 199.683,111.200 198.966,111.200 197.013 L 111.200 194.400 125.100 194.400 L 139.000 194.400 138.860 199.851 C 138.689 206.476,138.129 205.986,145.876 205.994 C 153.036 206.001,152.438 206.520,152.613 200.147 C 152.793 193.637,152.382 194.001,159.549 193.994 C 167.399 193.986,166.782 195.017,166.478 182.400 C 166.356 177.338,166.887 171.372,167.502 170.900 C 167.936 170.567,169.827 170.387,173.176 170.360 C 180.759 170.300,180.162 170.803,180.400 164.268 C 180.550 160.133,180.740 158.683,181.164 158.421 C 181.475 158.230,187.228 158.051,193.949 158.023 C 208.203 157.965,206.786 158.632,206.794 151.980 C 206.802 145.684,206.479 146.000,212.906 146.000 C 220.124 146.000,219.600 146.640,219.600 137.819 C 219.600 132.312,219.475 130.416,219.100 130.264 C 218.735 130.116,218.722 129.972,219.052 129.730 C 219.301 129.549,219.575 128.117,219.662 126.549 C 219.899 122.287,219.673 122.400,227.969 122.400 C 236.575 122.400,236.000 121.985,236.000 128.200 C 236.000 134.349,235.586 134.000,242.880 134.000 L 248.800 134.000 248.800 123.009 L 248.800 112.019 241.900 111.909 L 235.000 111.800 234.800 106.000 L 234.600 100.200 231.084 100.000 C 228.768 99.868,227.456 99.618,227.240 99.266 C 226.976 98.838,226.863 98.858,226.668 99.366 M249.467 134.267 C 248.908 134.825,249.170 145.077,249.755 145.563 C 250.130 145.874,252.107 145.987,255.855 145.912 L 261.400 145.800 261.511 139.900 L 261.621 134.000 255.677 134.000 C 252.408 134.000,249.613 134.120,249.467 134.267 M340.000 140.200 L 340.000 146.400 346.157 146.400 C 353.206 146.400,352.800 146.635,352.800 142.555 C 352.800 140.631,352.952 139.916,353.400 139.745 C 353.730 139.618,354.000 139.193,354.000 138.800 C 354.000 138.407,353.730 137.982,353.400 137.855 C 352.989 137.698,352.800 137.055,352.800 135.813 L 352.800 134.000 346.400 134.000 L 340.000 134.000 340.000 140.200 M262.667 146.267 C 262.520 146.413,262.400 148.920,262.400 151.838 C 262.400 158.768,262.082 158.456,269.044 158.349 L 274.400 158.267 274.400 152.134 L 274.400 146.000 268.667 146.000 C 265.513 146.000,262.813 146.120,262.667 146.267 M329.100 146.279 L 326.400 146.437 326.400 152.214 C 326.400 157.102,326.506 158.115,327.089 158.795 C 327.901 159.744,329.600 159.882,329.600 159.000 C 329.600 158.599,330.001 158.400,330.813 158.400 C 331.521 158.400,332.121 158.649,332.255 159.000 C 332.779 160.364,338.504 159.804,339.414 158.300 C 340.248 156.920,340.620 147.290,339.868 146.534 C 339.506 146.171,333.430 146.028,329.100 146.279 M354.058 146.364 C 353.735 146.564,353.694 153.347,353.907 171.219 C 354.206 196.343,354.000 231.335,353.549 231.784 C 353.412 231.922,332.937 232.028,308.049 232.021 L 262.800 232.007 262.800 237.996 L 262.800 243.985 307.828 243.986 C 332.593 243.987,353.023 244.091,353.228 244.217 C 353.439 244.348,353.600 248.235,353.600 253.205 L 353.600 261.964 346.700 262.082 C 342.905 262.147,313.025 262.148,280.300 262.084 L 220.800 261.968 220.800 253.574 L 220.800 245.180 219.700 244.754 C 218.561 244.313,208.789 244.513,208.011 244.993 C 207.754 245.152,207.598 248.044,207.595 252.724 C 207.589 260.728,207.464 261.813,206.507 262.180 C 205.466 262.580,48.124 262.427,47.068 262.026 C 45.622 261.476,45.544 260.633,45.578 245.927 C 45.601 235.745,45.485 232.206,45.108 231.602 C 44.441 230.534,34.400 230.344,34.400 231.400 C 34.400 231.730,34.130 232.000,33.800 232.000 C 33.289 232.000,33.200 233.067,33.200 239.200 C 33.200 245.382,33.286 246.400,33.809 246.400 C 34.702 246.400,34.670 267.921,33.778 268.264 C 32.900 268.601,32.921 285.007,33.800 285.345 C 34.177 285.489,34.400 286.101,34.400 286.987 L 34.400 288.400 39.757 288.400 C 46.060 288.400,45.484 287.728,45.331 294.900 L 45.213 300.400 205.407 300.400 L 365.600 300.400 365.588 266.100 C 365.582 247.235,365.627 212.540,365.688 189.000 L 365.800 146.200 360.151 146.145 C 357.044 146.114,354.303 146.213,354.058 146.364 M275.092 158.290 C 274.581 159.237,275.032 169.649,275.600 170.008 C 275.930 170.217,278.504 170.391,281.320 170.394 C 285.122 170.398,286.744 170.557,287.622 171.012 C 289.139 171.796,322.443 171.841,324.800 171.063 L 326.200 170.600 326.311 164.694 L 326.421 158.788 325.441 158.416 C 324.255 157.965,275.334 157.843,275.092 158.290 M59.200 213.100 L 59.201 219.000 52.800 218.865 C 45.591 218.713,46.338 218.350,46.338 222.000 C 46.338 222.880,46.352 225.225,46.369 227.210 L 46.400 230.820 52.700 230.710 L 59.000 230.600 59.111 225.100 L 59.223 219.600 64.711 219.594 C 67.730 219.591,70.420 219.448,70.690 219.277 C 71.366 218.847,71.763 213.936,71.418 210.256 L 71.132 207.200 65.166 207.200 L 59.200 207.200 59.200 213.100 M353.924 274.296 C 354.561 275.151,354.461 286.592,353.810 287.406 C 353.478 287.820,323.944 287.945,199.600 288.059 L 45.800 288.200 45.800 281.000 L 45.800 273.800 59.800 273.600 C 102.139 272.995,353.398 273.590,353.924 274.296 " stroke="none" fill="#050404" fill-rule="evenodd"></path></g></svg>